<svg width="20" height="26" viewBox="0 0 20 26" fill="none" xmlns="http://www.w3.org/2000/svg">
<path fill-rule="evenodd" clip-rule="evenodd" d="M20 24.4101C20 24.4101 17.5141 20.7935 17.5141 17.8553C17.5141 14.9171 14.5759 14.691 15.0282 13.5603C15.4805 12.4296 18.4187 7.00546 13.6713 7.68388C13.6713 7.68388 11.8638 5.65025 15.2527 2.25978C15.2527 2.25978 13.8958 0 5.30738 0C5.30738 0 2.14305 7.23324 0.561706 7.23324C-1.01964 7.23324 1.24013 9.26685 1.24013 9.493C1.24013 9.71914 -0.116714 13.5619 1.46627 15.3694C3.04762 17.1769 8.47337 18.0814 9.37629 18.5337C10.2809 18.986 9.60244 25.9931 9.60244 25.9931L20 24.4101Z" fill="#EE9C7F"/>
</svg>
