<svg width="12" height="12" viewBox="0 0 12 12" fill="none" xmlns="http://www.w3.org/2000/svg">
<path d="M10.6222 0.483011C9.97706 -0.161004 8.93231 -0.161004 8.28716 0.483011L7.70266 1.07072L1.4806 7.28948L1.46737 7.3028C1.46417 7.30601 1.46417 7.30941 1.46076 7.30941C1.45415 7.31933 1.44423 7.32915 1.43773 7.33906C1.43773 7.34237 1.43432 7.34237 1.43432 7.34568C1.4277 7.35559 1.4245 7.3622 1.41779 7.37212C1.41458 7.37543 1.41458 7.37863 1.41128 7.38204C1.40797 7.39196 1.40467 7.39857 1.40126 7.40849C1.40126 7.41169 1.39806 7.41169 1.39806 7.4151L0.0175681 11.5664C-0.0229281 11.6846 0.00785726 11.8154 0.0968043 11.9032C0.159305 11.9648 0.243603 11.9993 0.331311 11.999C0.367158 11.9984 0.402695 11.9928 0.436993 11.9825L4.58507 10.5987C4.58827 10.5987 4.58827 10.5987 4.59168 10.5955C4.60211 10.5924 4.61213 10.588 4.62133 10.5822C4.62391 10.5819 4.62618 10.5807 4.62804 10.579C4.63786 10.5724 4.65108 10.5656 4.661 10.559C4.67081 10.5525 4.68083 10.5426 4.69075 10.536C4.69406 10.5326 4.69726 10.5326 4.69726 10.5294C4.70067 10.5261 4.70728 10.5229 4.71058 10.5162L11.5172 3.70959C12.1612 3.06444 12.1612 2.0197 11.5172 1.37465L10.6222 0.483011ZM3.72944 9.07262L2.93075 8.27402L8.68379 2.52098L9.48249 3.31957L3.72944 9.07262ZM1.85705 8.13504L3.86512 10.143L0.849807 11.1469L1.85705 8.13504ZM11.0515 3.24719L10.7014 3.6006L8.40277 1.30192L8.75628 0.948614C9.14296 0.562247 9.76972 0.562247 10.1565 0.948614L11.0548 1.84687C11.4385 2.2353 11.4371 2.86061 11.0515 3.24719Z" fill="#3E4356"/>
</svg>
