<svg width="23" height="24" viewBox="0 0 23 24" fill="none" xmlns="http://www.w3.org/2000/svg">
<path fill-rule="evenodd" clip-rule="evenodd" d="M0.672932 2.67814C0.996416 2.10804 1.35994 1.54274 1.87559 1.13758C2.63626 0.538658 3.63713 0.354507 4.59638 0.227996C6.60454 -0.036236 8.65915 -0.127518 10.6449 0.266428C12.6322 0.661975 14.5571 1.57477 15.9135 3.07849C16.1794 3.37315 16.4228 3.69024 16.7334 3.93686C17.3596 4.4349 18.1827 4.59023 18.9642 4.75838C19.9218 4.96496 20.9467 5.26121 21.528 6.0491C21.8067 6.42543 21.954 6.88023 22.0949 7.32702C22.4969 8.60174 22.886 9.89407 22.9789 11.228C23.1455 13.6286 22.3143 16.0467 20.8779 17.978C19.4414 19.9093 17.4301 21.3698 15.2329 22.3514C13.5835 23.0881 11.6458 23.5589 9.99311 22.8286C9.21002 22.4827 8.55986 21.895 7.96254 21.2833C6.03124 19.3055 4.47787 16.9595 3.41294 14.4084C2.96454 13.3339 2.60423 12.2241 2.11259 11.1688C1.64819 10.1727 1.11493 9.26794 0.881122 8.18059C0.712975 7.3991 0.527204 6.7233 0.232545 5.97705C-0.23987 4.77599 0.0579918 3.76389 0.672932 2.67814Z" fill="#23272D"/>
</svg>
