<svg width="224" height="192" viewBox="0 0 224 192" fill="none" xmlns="http://www.w3.org/2000/svg">
<path d="M140.365 175.252H83.1306L88.509 154.24L91.7346 141.631H131.759L134.988 154.24L140.365 175.252Z" fill="#99633C"/>
<path d="M134.986 154.24H88.509L91.7346 141.631H131.759L134.986 154.24Z" fill="#8E572F"/>
<path d="M200.706 148.735H22.7894C15.7739 148.735 10.0855 143.048 10.0855 136.032V121.919H213.41V136.032C213.41 143.048 207.721 148.735 200.706 148.735Z" fill="#BA7C4F"/>
<path d="M213.41 121.92H10.0855V30.5602C10.0855 23.5447 15.7725 17.8562 22.7894 17.8562H200.706C207.721 17.8562 213.41 23.5432 213.41 30.5602V121.92Z" fill="#E2C0A8"/>
<path d="M20.7509 116.339C20.4995 116.339 20.2952 116.135 20.2952 115.884V83.0616C20.2952 82.8102 20.4995 82.6059 20.7509 82.6059C21.0023 82.6059 21.2066 82.8102 21.2066 83.0616V115.884C21.2052 116.135 21.0023 116.339 20.7509 116.339Z" fill="#D3AD92"/>
<path d="M43.0459 116.339C42.7945 116.339 42.5902 116.135 42.5902 115.884V83.0616C42.5902 82.8102 42.7945 82.6059 43.0459 82.6059C43.2973 82.6059 43.5016 82.8102 43.5016 83.0616V115.884C43.5016 116.135 43.2973 116.339 43.0459 116.339Z" fill="#D3AD92"/>
<path d="M65.3425 116.339C65.091 116.339 64.8868 116.135 64.8868 115.884V83.0616C64.8868 82.8102 65.091 82.6059 65.3425 82.6059C65.5939 82.6059 65.7982 82.8102 65.7982 83.0616V115.884C65.7967 116.135 65.5939 116.339 65.3425 116.339Z" fill="#D3AD92"/>
<path d="M87.639 116.339C87.3876 116.339 87.1833 116.135 87.1833 115.884V83.0616C87.1833 82.8102 87.3876 82.6059 87.639 82.6059C87.8904 82.6059 88.0947 82.8102 88.0947 83.0616V115.884C88.0933 116.135 87.889 116.339 87.639 116.339Z" fill="#D3AD92"/>
<path d="M109.934 116.339C109.683 116.339 109.478 116.135 109.478 115.884V83.0616C109.478 82.8102 109.683 82.6059 109.934 82.6059C110.185 82.6059 110.39 82.8102 110.39 83.0616V115.884C110.39 116.135 110.185 116.339 109.934 116.339Z" fill="#D3AD92"/>
<path d="M132.231 116.339C131.979 116.339 131.775 116.135 131.775 115.884V83.0616C131.775 82.8102 131.979 82.6059 132.231 82.6059C132.482 82.6059 132.686 82.8102 132.686 83.0616V115.884C132.685 116.135 132.482 116.339 132.231 116.339Z" fill="#D3AD92"/>
<path d="M154.526 116.339C154.274 116.339 154.07 116.135 154.07 115.884V83.0616C154.07 82.8102 154.274 82.6059 154.526 82.6059C154.777 82.6059 154.981 82.8102 154.981 83.0616V115.884C154.981 116.135 154.777 116.339 154.526 116.339Z" fill="#CEB39F"/>
<path d="M176.822 116.339C176.571 116.339 176.366 116.135 176.366 115.884V83.0616C176.366 82.8102 176.571 82.6059 176.822 82.6059C177.074 82.6059 177.278 82.8102 177.278 83.0616V115.884C177.276 116.135 177.074 116.339 176.822 116.339Z" fill="#D3AD92"/>
<path d="M199.117 116.339C198.866 116.339 198.662 116.135 198.662 115.884V83.0616C198.662 82.8102 198.866 82.6059 199.117 82.6059C199.369 82.6059 199.573 82.8102 199.573 83.0616V115.884C199.573 116.135 199.369 116.339 199.117 116.339Z" fill="#CEB39F"/>
<path d="M21.2866 116.411L20.2138 116.084L42.6446 109.231L65.104 110.819L110.2 97.0426L132.446 103.84L176.279 94.337L198.5 84.8372L199.735 85.1072L177.365 94.6698L177.261 94.6927L132.279 104.444L110.2 97.6983L65.5811 111.329L43.1231 109.739L21.2866 116.411Z" fill="#D8A988"/>
<path d="M74.5894 52.9638C74.5894 67.382 62.9011 79.0703 48.483 79.0703C38.9932 79.0703 30.6863 74.0076 26.1165 66.4349C25.6065 65.5921 25.1436 64.7164 24.7321 63.815C23.2193 60.5108 22.3765 56.8352 22.3765 52.9638C22.3765 38.5457 34.0648 26.8574 48.483 26.8574C62.8997 26.8574 74.5894 38.5457 74.5894 52.9638Z" fill="#5F492E"/>
<path d="M48.4815 52.9638L26.115 66.4349C25.605 65.5921 25.1422 64.7164 24.7308 63.815L35.1162 58.028L48.4815 52.9638Z" fill="#EAD065"/>
<path d="M48.4815 24.1418V52.9638H19.6595C19.6595 49.0739 20.4223 45.2998 21.9251 41.7442C23.3765 38.3114 25.455 35.2301 28.1007 32.5844C30.7463 29.9388 33.8291 27.8602 37.2619 26.4089C40.8175 24.9046 44.5916 24.1418 48.4815 24.1418Z" fill="#D88888"/>
<path d="M48.4815 52.9638L19.0338 68.8363L20.7523 60.6694L21.7566 55.9023L22.3751 52.9638H48.4815Z" fill="#7575D3"/>
<path d="M48.4815 52.9638L21.7566 55.9023L22.3751 52.9638H48.4815Z" fill="#6464BC"/>
<path d="M191.153 39.8299H83.1049C82.3863 39.8299 81.8049 39.2471 81.8049 38.53C81.8049 37.8129 82.3877 37.23 83.1049 37.23H191.153C191.872 37.23 192.453 37.8129 192.453 38.53C192.453 39.2471 191.872 39.8299 191.153 39.8299Z" fill="#D3AD92"/>
<path d="M191.153 50.7525H83.1049C82.3863 50.7525 81.8049 50.1696 81.8049 49.4525C81.8049 48.7354 82.3877 48.1526 83.1049 48.1526H191.153C191.872 48.1526 192.453 48.7354 192.453 49.4525C192.453 50.1696 191.872 50.7525 191.153 50.7525Z" fill="#D3AD92"/>
<path d="M191.153 61.6736H83.1049C82.3863 61.6736 81.8049 61.0908 81.8049 60.3736C81.8049 59.6551 82.3877 59.0737 83.1049 59.0737H191.153C191.872 59.0737 192.453 59.6565 192.453 60.3736C192.453 61.0922 191.872 61.6736 191.153 61.6736Z" fill="#D3AD92"/>
<path d="M191.153 72.5962H83.1049C82.3863 72.5962 81.8049 72.0133 81.8049 71.2962C81.8049 70.5777 82.3877 69.9962 83.1049 69.9962H191.153C191.872 69.9962 192.453 70.5791 192.453 71.2962C192.453 72.0133 191.872 72.5962 191.153 72.5962Z" fill="#D3AD92"/>
<path d="M111.711 192C173.408 192 223.422 187.523 223.422 182C223.422 176.478 173.408 172.001 111.711 172.001C50.0148 172.001 0 176.478 0 182C0 187.523 50.0148 192 111.711 192Z" fill="#E8BDA2"/>
<path fill-rule="evenodd" clip-rule="evenodd" d="M177.968 130.073H185.003L176.149 181.492H169.114L177.968 130.073Z" fill="#663333"/>
<path fill-rule="evenodd" clip-rule="evenodd" d="M199.712 130.073H192.675L201.53 181.492H208.566L199.712 130.073Z" fill="#663333"/>
<path d="M209.559 139.327C221.006 127.88 221.006 109.321 209.559 97.8738C198.112 86.4269 179.553 86.4269 168.106 97.8738C156.659 109.321 156.659 127.88 168.106 139.327C179.553 150.774 198.112 150.774 209.559 139.327Z" fill="#D14362"/>
<path fill-rule="evenodd" clip-rule="evenodd" d="M188.839 94.7498C202.009 94.7498 212.686 105.425 212.686 118.595C212.686 131.765 202.009 142.441 188.839 142.441C175.669 142.441 164.993 131.765 164.993 118.595C164.994 105.425 175.669 94.7498 188.839 94.7498ZM188.839 100.217C178.688 100.217 170.46 108.445 170.46 118.596C170.46 128.747 178.688 136.976 188.839 136.976C198.99 136.976 207.219 128.747 207.219 118.596C207.219 108.445 198.99 100.217 188.839 100.217ZM188.839 105.682C181.708 105.682 175.927 111.464 175.927 118.595C175.927 125.726 181.708 131.507 188.839 131.507C195.97 131.507 201.752 125.726 201.752 118.595C201.753 111.464 195.972 105.682 188.839 105.682ZM188.839 111.149C184.726 111.149 181.392 114.484 181.392 118.596C181.392 122.709 184.726 126.043 188.839 126.043C192.952 126.043 196.286 122.709 196.286 118.596C196.286 114.484 192.952 111.149 188.839 111.149Z" fill="white"/>
<path d="M49.7457 88.6257C49.6242 92.807 48.5672 96.8969 47.5158 100.945C45.9344 107.034 44.3401 113.164 41.6588 118.853C39.8417 122.709 37.4803 126.563 37.5374 130.826C37.6117 136.259 41.8459 141.017 46.9015 143.004C51.9585 144.991 57.6469 144.644 62.9553 143.481C66.6281 142.676 70.6537 141.114 72.0594 137.626C73.3765 134.357 71.8865 130.722 70.8294 127.359C69.3266 122.578 68.708 117.569 68.0952 112.595C67.5066 107.817 66.9181 103.001 67.2652 98.1983C67.4895 95.0927 68.1037 92.0013 67.9352 88.8928C67.6352 83.3644 64.0796 75.3704 57.9255 74.2775C49.6757 72.8133 49.8971 83.4158 49.7457 88.6257Z" fill="#867968"/>
<path d="M58.1927 86.2086H57.8312V161.959H58.1927V86.2086Z" fill="#2A180F"/>
<path d="M53.7833 92.519L53.4314 92.6014L57.8519 111.488L58.2038 111.406L53.7833 92.519Z" fill="#2A180F"/>
<path d="M65.4162 119.853L57.8953 129.257L58.1776 129.483L65.6984 120.079L65.4162 119.853Z" fill="#2A180F"/>
<path d="M57.8612 142.087C57.834 142.046 55.1098 137.949 52.4113 133.874C46.9386 125.613 46.9 125.5 46.8829 125.446L47.2258 125.332C47.2244 125.329 47.2229 125.323 47.2186 125.316C47.4029 125.68 54.457 136.316 58.1626 141.887L57.8612 142.087Z" fill="#2A180F"/>
<path d="M32.1706 102.654C32.0777 105.841 31.2721 108.958 30.4707 112.044C29.2664 116.684 28.0493 121.355 26.0065 125.692C24.6223 128.63 22.8223 131.567 22.8666 134.816C22.9223 138.956 26.1493 142.583 30.0035 144.097C33.8577 145.611 38.1932 145.347 42.2374 144.461C45.0359 143.848 48.1044 142.657 49.1758 139.999C50.1801 137.507 49.043 134.737 48.2387 132.174C47.093 128.53 46.6216 124.713 46.1545 120.922C45.706 117.281 45.2574 113.611 45.5216 109.951C45.6931 107.584 46.1616 105.228 46.0331 102.858C45.8045 98.6454 43.0946 92.5527 38.4047 91.7199C32.1178 90.6042 32.2863 98.684 32.1706 102.654Z" fill="#B09E88"/>
<path d="M38.6088 100.813H38.3332V158.542H38.6088V100.813Z" fill="#4D2D1C"/>
<path d="M35.2526 105.614L34.9842 105.677L38.3528 120.069L38.6212 120.006L35.2526 105.614Z" fill="#4D2D1C"/>
<path d="M44.1244 126.457L38.3926 133.625L38.6079 133.797L44.3398 126.63L44.1244 126.457Z" fill="#4D2D1C"/>
<path d="M38.3561 143.397C38.3346 143.366 36.259 140.243 34.2019 137.139C30.0306 130.843 30.002 130.756 29.9877 130.715L30.2491 130.627C30.2477 130.625 30.2463 130.62 30.2449 130.615C30.3849 130.893 35.7619 138.997 38.5846 143.244L38.3561 143.397Z" fill="#4D2D1C"/>
<path d="M45.9059 122.693C45.8459 124.738 45.3302 126.738 44.8159 128.716C44.0431 131.692 43.2631 134.689 41.9532 137.47C41.0646 139.356 39.9103 141.239 39.9389 143.323C39.9746 145.978 42.0445 148.304 44.5173 149.275C46.9887 150.247 49.7701 150.077 52.3643 149.508C54.1599 149.115 56.127 148.351 56.8141 146.646C57.4584 145.048 56.7299 143.27 56.2127 141.627C55.4785 139.29 55.1756 136.842 54.8756 134.41C54.5885 132.075 54.3 129.72 54.47 127.373C54.58 125.855 54.88 124.343 54.7971 122.823C54.65 120.121 52.9129 116.214 49.9044 115.679C45.8716 114.964 45.9787 120.146 45.9059 122.693Z" fill="#C2AF96"/>
<path d="M50.0357 121.512H49.8586V158.542H50.0357V121.512Z" fill="#79472B"/>
<path d="M47.8884 124.581L47.716 124.621L49.8767 133.853L50.0492 133.813L47.8884 124.581Z" fill="#79472B"/>
<path d="M53.5244 137.97L49.8482 142.566L49.9866 142.677L53.6627 138.08L53.5244 137.97Z" fill="#79472B"/>
<path d="M49.873 148.827C49.8601 148.807 48.5273 146.804 47.2088 144.813C44.5331 140.774 44.5146 140.719 44.506 140.693L44.6731 140.637C44.6731 140.636 44.6717 140.633 44.6703 140.629C44.7603 140.807 48.2087 146.006 50.0201 148.73L49.873 148.827Z" fill="#79472B"/>
<path d="M48.5015 156.004H32.2791L35.8933 177.689C36.2733 179.969 38.2461 181.64 40.5575 181.64H48.5015H56.4456C58.7569 181.64 60.7298 179.969 61.1098 177.689L64.7239 156.004H48.5015Z" fill="#C99A7B"/>
<path d="M66.3024 158.541H30.7006C30.2449 158.541 29.8763 158.172 29.8763 157.717V152.557C29.8763 152.101 30.2449 151.733 30.7006 151.733H66.3024C66.7581 151.733 67.1267 152.101 67.1267 152.557V157.717C67.1267 158.172 66.7581 158.541 66.3024 158.541Z" fill="#AA714B"/>
<path d="M169.95 6.82513C169.95 6.82513 168.991 22.7918 172.791 22.779C176.592 22.7661 176.335 22.0061 176.335 22.0061L178.766 29.2188C179.065 29.0874 179.364 28.9545 179.662 28.8231C180.494 28.456 180.629 28.486 180.621 27.5603C180.606 26.0875 180.555 24.6132 180.555 23.1404C180.536 21.9176 180.929 19.6619 180.112 18.8176C179.274 17.9505 178.658 17.382 178.381 16.142C178.228 15.4563 178.307 14.6835 178.082 14.0192C177.827 13.2592 176.555 11.9978 175.417 12.3807C174.278 12.765 170.99 14.2963 169.95 6.82513Z" fill="#EE9C7F"/>
<path d="M197.305 82.8644C197.305 82.8644 200.109 108.105 201.31 115.316C202.512 122.528 206.519 132.543 208.923 141.357C211.327 150.171 212.128 176.613 212.128 176.613L203.714 177.415C203.714 177.415 195.702 155.38 194.5 150.573C193.299 145.766 180.478 126.133 179.676 124.13C178.875 122.128 188.491 77.656 188.491 77.656L197.305 82.8644Z" fill="#1B1728"/>
<path d="M193.298 85.6687C193.298 85.6687 185.285 122.126 185.685 128.536C186.085 134.946 183.682 176.212 181.678 178.215C179.675 180.217 172.864 177.815 171.662 178.215C170.461 178.615 172.464 161.388 171.662 155.378C170.861 149.368 166.454 128.936 166.454 121.725C166.454 114.514 166.454 80.0588 166.454 80.0588L193.298 85.6687Z" fill="#251F33"/>
<path d="M137.902 53.8895C137.502 53.8895 133.495 53.0881 132.293 51.8868C131.092 50.6854 129.889 51.8867 131.492 53.8895C131.492 53.8895 129.489 54.6909 127.485 53.8895C125.482 53.0881 125.081 54.2895 125.882 54.691C126.684 55.0909 132.693 59.8994 138.302 56.6937L137.902 53.8895Z" fill="#E1947A"/>
<path d="M143.752 57.6466C143.063 57.7066 142.265 57.628 141.6 57.7923C140.768 57.998 140.07 58.4994 139.189 58.6137C138.209 58.7408 137.125 58.4923 136.483 57.7394C135.968 57.1337 135.813 56.3109 135.676 55.5281C135.469 54.3381 135.262 53.1481 135.055 51.9596C134.909 51.1225 134.785 50.1825 135.278 49.4911C135.812 48.7397 136.848 48.5897 137.765 48.504C142.313 48.0768 147.342 48.3654 151.376 46.0497C155.987 43.4027 159.463 39.2742 163.673 36.0929C167.547 33.1658 171.477 28.7545 173.667 24.3732C175.269 21.1676 185.285 19.9662 187.288 23.1718C189.291 26.3774 196.903 31.5859 198.906 86.8729C198.906 86.8729 172.664 91.0799 165.053 83.4673C165.053 83.4673 164.251 55.8238 165.854 51.4167C165.531 52.3053 163.024 53.2081 162.248 53.711C160.921 54.5695 159.593 55.4523 158.093 55.9838C156.524 56.5395 154.846 56.6866 153.189 56.8309C150.042 57.1009 146.897 57.3737 143.752 57.6466Z" fill="#D14362"/>
<path d="M188.558 18.4948C188.671 17.4377 188.869 16.3834 189.105 15.3506C189.703 12.7178 190.528 10.1165 190.715 7.42368C190.861 5.3166 190.512 2.98381 188.945 1.5667C187.395 0.163885 185.108 0.0367422 183.016 0.0096001C180.228 -0.0261132 177.382 -0.00612419 174.737 0.873851C172.948 1.46812 171.251 2.50809 170.052 3.97948C169.573 4.56803 168.701 5.66945 168.865 6.44085C169.015 7.14083 169.844 7.75938 170.083 8.47079C170.398 9.40648 170.255 10.475 170.543 11.4136C170.9 12.5778 172.04 13.4192 173.041 14.0035C174.114 14.6292 175.282 15.1235 176.215 15.9434C176.879 16.5277 177.409 17.3205 177.557 18.2048C177.621 18.5948 177.598 18.9033 177.765 19.2648C177.961 19.6862 178.267 20.0248 178.408 20.4847C178.739 21.5633 178.649 22.9518 178.817 24.0789C179.177 26.5117 179.701 28.9216 180.385 31.2844C180.942 33.2087 181.632 35.1515 182.928 36.68C184.701 38.7714 187.573 39.8728 190.289 39.5014C191.78 39.2985 193.316 38.5771 193.975 37.2228C194.463 36.22 194.392 35.03 194.12 33.9472C193.153 30.1088 189.909 27.1746 188.856 23.3604C188.418 21.779 188.383 20.1333 188.558 18.4948Z" fill="#2C2B27"/>
<path d="M211.194 175.812H204.041C203.41 175.812 202.834 176.182 202.586 176.763C201.87 178.435 199.752 181.833 194.1 183.023C186.488 184.626 194.1 185.026 200.51 185.026H210.67C211.496 185.026 212.183 184.394 212.254 183.573L212.778 177.54C212.86 176.61 212.127 175.812 211.194 175.812Z" fill="#2C2B27"/>
<path d="M180.345 175.812H173.192C172.561 175.812 171.985 176.182 171.737 176.763C171.021 178.435 168.902 181.833 163.251 183.023C155.639 184.626 163.251 185.026 169.661 185.026H179.821C180.646 185.026 181.334 184.394 181.405 183.573L181.929 177.54C182.011 176.61 181.278 175.812 180.345 175.812Z" fill="#2C2B27"/>
</svg>
