<svg width="55" height="30" viewBox="0 0 55 30" fill="none" xmlns="http://www.w3.org/2000/svg">
<path fill-rule="evenodd" clip-rule="evenodd" d="M0 29.4738V29.9998C0 29.9998 15.7256 29.5459 22.4249 29.0134C23.8298 28.9028 24.8354 28.7873 25.2188 28.6734C27.4305 28.0094 30.3061 28.2308 35.3951 23.5861C40.4825 18.9413 54.6155 5.48833 54.6155 5.48833C54.9186 4.16837 55.0662 3.18361 54.9716 2.23895C54.9122 1.63912 54.6396 0.843619 54.0975 0C51.8746 3.25579 45.857 11.7513 41.2555 15.2894C35.5042 19.7144 35.5042 19.7144 35.5042 19.7144C35.5042 19.7144 30.4168 26.3511 25.9918 27.0151C22.4153 27.5508 6.11063 28.9541 0 29.4738Z" fill="#891931"/>
</svg>
