<svg width="300" height="300" viewBox="0 0 300 300" fill="none" xmlns="http://www.w3.org/2000/svg">
<path d="M300 229.44H0V229.59H300V229.44Z" fill="#EBEBEB"/>
<path d="M269.94 239.094H250.068V239.244H269.94V239.094Z" fill="#EBEBEB"/>
<path d="M163.931 237.216H156.197V237.366H163.931V237.216Z" fill="#EBEBEB"/>
<path d="M209.802 237.852H193.518V238.002H209.802V237.852Z" fill="#EBEBEB"/>
<path d="M249.469 233.526H215.803V233.676H249.469V233.526Z" fill="#EBEBEB"/>
<path d="M47.3946 240.468H31.4766V240.618H47.3946V240.468Z" fill="#EBEBEB"/>
<path d="M66.5344 240.468H52.7344V240.618H66.5344V240.468Z" fill="#EBEBEB"/>
<path d="M115.086 237.144H78.5996V237.294H115.086V237.144Z" fill="#EBEBEB"/>
<path d="M142.2 202.68H26.3458C25.4382 202.678 24.5683 202.317 23.9271 201.674C23.2859 201.032 22.9258 200.162 22.9258 199.254V36.396C22.9337 35.4936 23.2973 34.6308 23.9376 33.9949C24.578 33.3591 25.4434 33.0015 26.3458 33H142.2C143.108 33 143.98 33.361 144.622 34.0035C145.265 34.646 145.626 35.5174 145.626 36.426V199.254C145.626 200.163 145.265 201.034 144.622 201.677C143.98 202.319 143.108 202.68 142.2 202.68ZM26.3458 33.12C25.478 33.1216 24.6463 33.4674 24.0332 34.0816C23.4201 34.6958 23.0758 35.5282 23.0758 36.396V199.254C23.0758 200.122 23.4201 200.954 24.0332 201.568C24.6463 202.183 25.478 202.528 26.3458 202.53H142.2C143.068 202.528 143.9 202.183 144.515 201.569C145.129 200.955 145.474 200.122 145.476 199.254V36.396C145.474 35.5276 145.129 34.6953 144.515 34.0813C143.9 33.4672 143.068 33.1216 142.2 33.12H26.3458Z" fill="#EBEBEB"/>
<path d="M271.985 202.68H156.125C155.217 202.678 154.347 202.317 153.704 201.675C153.062 201.033 152.701 200.162 152.699 199.254V36.396C152.709 35.4931 153.074 34.6302 153.715 33.9946C154.356 33.3589 155.222 33.0015 156.125 33H271.985C272.887 33.0031 273.75 33.3613 274.389 33.997C275.029 34.6327 275.391 35.4947 275.399 36.396V199.254C275.399 200.161 275.04 201.03 274.4 201.672C273.76 202.314 272.892 202.677 271.985 202.68ZM156.125 33.12C155.257 33.1216 154.425 33.4672 153.81 34.0813C153.196 34.6953 152.851 35.5276 152.849 36.396V199.254C152.851 200.122 153.196 200.955 153.81 201.569C154.425 202.183 155.257 202.528 156.125 202.53H271.985C272.854 202.528 273.686 202.183 274.3 201.569C274.914 200.955 275.26 200.122 275.261 199.254V36.396C275.26 35.5276 274.914 34.6953 274.3 34.0813C273.686 33.4672 272.854 33.1216 271.985 33.12H156.125Z" fill="#EBEBEB"/>
<path d="M280.237 116.502C282.117 110.002 281.907 103.076 279.637 96.7021C282.048 93.2505 283.647 89.2978 284.313 85.1404C284.979 80.9831 284.695 76.7289 283.483 72.6968C282.27 68.6647 280.161 64.9593 277.313 61.8585C274.465 58.7576 270.952 56.3418 267.037 54.7921C265.892 46.5396 262.625 38.7255 257.556 32.1138C252.487 25.502 245.788 20.319 238.116 17.0714C230.444 13.8238 222.06 12.6228 213.784 13.586C205.508 14.5491 197.624 17.6433 190.903 22.5661C187.524 19.0183 183.164 16.56 178.379 15.5062C173.595 14.4525 168.605 14.8513 164.048 16.6515C159.492 18.4517 155.577 21.5714 152.805 25.6108C150.033 29.6501 148.53 34.4252 148.489 39.3241C142.158 40.594 136.267 43.4922 131.398 47.7329C126.529 51.9736 122.849 57.4103 120.722 63.5068C118.595 69.6032 118.094 76.1489 119.268 82.4983C120.442 88.8476 123.25 94.7813 127.417 99.7141C125.379 103.389 124.196 107.476 123.955 111.671C123.714 115.866 124.423 120.062 126.027 123.946C127.632 127.829 130.091 131.301 133.223 134.103C136.354 136.905 140.077 138.965 144.115 140.13C148.828 141.496 153.819 141.591 158.581 140.406C165.035 149.3 174.638 155.398 185.432 157.456C196.226 159.514 207.399 157.377 216.673 151.482C221.191 161.976 224.899 177.72 216.913 193.158C245.923 190.314 266.869 162.492 262.597 136.998C266.84 135.054 270.613 132.216 273.657 128.678C276.702 125.141 278.946 120.987 280.237 116.502Z" fill="#EBEBEB"/>
<path d="M224.591 187.398C224.512 187.399 224.434 187.383 224.361 187.354C224.288 187.324 224.221 187.28 224.165 187.224C224.088 187.147 224.033 187.051 224.007 186.945C223.981 186.839 223.983 186.728 224.015 186.624C228.101 172.392 224.375 158.748 220.535 149.808L218.585 145.278L214.421 147.924C206.054 153.245 195.973 155.174 186.232 153.319C176.491 151.464 167.825 145.964 161.999 137.94L160.331 135.642L157.583 136.326C153.094 137.444 148.375 137.224 144.008 135.696C139.641 134.167 135.816 131.395 133.004 127.722C130.191 124.048 128.514 119.632 128.177 115.017C127.841 110.403 128.861 105.791 131.111 101.748L132.509 99.2161L130.643 97.0081C126.946 92.6342 124.454 87.3723 123.41 81.7412C122.367 76.1101 122.81 70.3043 124.695 64.8965C126.58 59.4887 129.842 54.6657 134.16 50.9031C138.477 47.1404 143.701 44.5682 149.315 43.4401L152.651 42.7681L152.687 39.3721C152.718 35.3075 153.962 31.3447 156.261 27.9921C158.559 24.6395 161.806 22.0499 165.586 20.5554C169.366 19.061 173.507 18.7298 177.476 19.6044C181.446 20.479 185.063 22.5194 187.865 25.4641L190.409 28.1281L193.409 25.9561C199.543 21.4568 206.74 18.6271 214.296 17.7439C221.851 16.8607 229.507 17.9543 236.513 20.9176C243.519 23.881 249.636 28.6125 254.265 34.6492C258.893 40.6859 261.876 47.821 262.919 55.3561L263.261 57.7561L265.535 58.6561C268.861 59.9724 271.844 62.0248 274.263 64.6591C276.682 67.2935 278.473 70.4414 279.501 73.8667C280.529 77.292 280.768 80.9057 280.2 84.4367C279.632 87.9676 278.272 91.324 276.221 94.2541L274.985 96.0241L275.711 98.0641C278.075 104.719 277.859 112.018 275.107 118.522C272.355 125.026 267.266 130.263 260.843 133.2L257.921 134.544L258.455 137.712C260.255 148.59 256.997 160.47 249.455 170.31C243.228 178.468 234.579 184.448 224.747 187.392C224.696 187.402 224.643 187.404 224.591 187.398ZM218.861 143.808C218.919 143.8 218.978 143.8 219.035 143.808C219.118 143.834 219.194 143.877 219.258 143.935C219.322 143.993 219.373 144.065 219.407 144.144L221.633 149.316C225.461 158.214 229.163 171.69 225.455 185.874C234.622 182.893 242.665 177.192 248.513 169.53C255.845 159.93 259.037 148.41 257.273 137.862L256.673 134.262C256.65 134.132 256.671 133.998 256.731 133.881C256.792 133.764 256.89 133.67 257.009 133.614L260.345 132.084C266.483 129.271 271.345 124.262 273.976 118.044C276.606 111.826 276.815 104.848 274.559 98.4841L273.731 96.1561C273.7 96.0655 273.69 95.9686 273.704 95.8736C273.717 95.7786 273.754 95.6882 273.809 95.6101L275.219 93.5821C277.167 90.8012 278.459 87.6152 278.999 84.2634C279.539 80.9116 279.312 77.4811 278.337 74.2293C277.361 70.9775 275.661 67.9891 273.365 65.4883C271.069 62.9875 268.236 61.0393 265.079 59.7901L262.475 58.7581C262.377 58.7189 262.291 58.6544 262.226 58.5712C262.16 58.4879 262.118 58.3889 262.103 58.2841L261.713 55.5181C260.702 48.1856 257.803 41.2417 253.301 35.3667C248.798 29.4916 242.847 24.8871 236.03 22.0041C229.212 19.1211 221.763 18.0586 214.411 18.9207C207.06 19.7828 200.059 22.54 194.093 26.9221L190.691 29.4001C190.574 29.4859 190.43 29.5265 190.286 29.5144C190.141 29.5022 190.006 29.4382 189.905 29.3341L186.995 26.2921C185.198 24.4176 183.041 22.9253 180.653 21.9046C178.265 20.8839 175.696 20.3559 173.099 20.3521C168.037 20.3519 163.18 22.3508 159.584 25.914C155.988 29.4771 153.945 34.3161 153.899 39.3781L153.857 43.2661C153.86 43.4064 153.814 43.5434 153.726 43.653C153.638 43.7626 153.515 43.838 153.377 43.8661L149.567 44.6341C144.159 45.7216 139.128 48.1995 134.97 51.8234C130.811 55.4474 127.669 60.0924 125.852 65.3007C124.035 70.509 123.606 76.1008 124.609 81.5251C125.611 86.9494 128.009 92.0189 131.567 96.2341L133.697 98.7601C133.776 98.8531 133.824 98.9677 133.836 99.0888C133.848 99.2099 133.822 99.3317 133.763 99.4381L132.167 102.33C131.343 103.814 130.687 105.386 130.211 107.016C129.114 110.82 129.037 114.846 129.988 118.689C130.939 122.532 132.886 126.057 135.631 128.909C138.377 131.762 141.825 133.841 145.629 134.939C149.432 136.037 153.458 136.114 157.301 135.162L160.445 134.382C160.561 134.353 160.683 134.359 160.795 134.4C160.907 134.441 161.005 134.514 161.075 134.61L162.977 137.232C168.617 145.022 177.02 150.363 186.467 152.165C195.914 153.966 205.693 152.09 213.803 146.922L218.561 143.922C218.649 143.858 218.753 143.818 218.861 143.808Z" fill="white"/>
<path d="M182.514 87.7141L166.434 85.2001L166.68 83.5921C166.961 81.3222 167.626 79.1168 168.648 77.0701C169.543 75.45 170.731 74.0097 172.152 72.8221C173.596 71.6221 176.74 69.5701 181.584 66.6661C184.158 65.1541 185.568 63.6301 185.784 62.0761C185.926 61.416 185.927 60.7333 185.788 60.0727C185.648 59.412 185.371 58.7882 184.974 58.2421C184.194 57.2401 182.868 56.5921 181.008 56.3041C180.091 56.1301 179.149 56.1469 178.24 56.3534C177.33 56.5599 176.473 56.9516 175.722 57.5041C174.202 58.6281 173.002 60.8121 172.122 64.0561L156.018 59.4661C157.522 53.5181 160.474 49.0001 164.874 45.9121C169.274 42.8241 175.422 41.8961 183.318 43.1281C189.47 44.0841 194.236 46.1401 197.616 49.2961C202.208 53.5681 204.054 58.5961 203.154 64.3801C202.751 66.8179 201.691 69.0997 200.088 70.9801C198.416 73.0041 195.282 75.3041 190.686 77.8801C187.486 79.7001 185.406 81.2341 184.446 82.4821C183.372 84.036 182.708 85.8355 182.514 87.7141ZM165.216 89.4001L182.442 92.0821L180.078 107.274L162.852 104.592L165.216 89.4001Z" fill="white"/>
<path d="M223.554 111.252L214.626 104.052L215.352 103.158C216.329 101.874 217.516 100.764 218.862 99.876C219.984 99.2075 221.218 98.75 222.504 98.526C225.141 98.2188 227.794 98.0805 230.448 98.112C232.552 98.112 233.952 97.678 234.648 96.81C234.972 96.4592 235.217 96.0431 235.366 95.5898C235.515 95.1364 235.565 94.6563 235.512 94.182C235.288 93.1275 234.668 92.1994 233.778 91.59C233.28 91.1597 232.698 90.8374 232.07 90.6433C231.441 90.4491 230.778 90.3874 230.124 90.462C228.796 90.606 227.29 91.512 225.606 93.18L217.404 84.666C220.428 81.57 223.828 79.86 227.604 79.536C231.38 79.212 235.464 80.826 239.856 84.378C243.272 87.142 245.45 90.088 246.39 93.216C247.678 97.452 247.024 101.174 244.428 104.382C243.324 105.733 241.872 106.758 240.228 107.346C238.488 107.982 235.76 108.274 232.044 108.222C229.446 108.222 227.634 108.39 226.602 108.822C225.402 109.37 224.356 110.204 223.554 111.252ZM212.4 106.146L221.964 113.892L215.13 122.328L205.566 114.6L212.4 106.146Z" fill="white"/>
<path d="M226.05 59.2801L222.186 54.0001L222.714 53.6101C223.437 53.0485 224.248 52.6106 225.114 52.3141C225.829 52.1082 226.575 52.037 227.316 52.1041C228.811 52.3138 230.29 52.6225 231.744 53.0281C232.908 53.3281 233.742 53.2921 234.252 52.9201C234.48 52.7729 234.674 52.5792 234.822 52.3517C234.97 52.1242 235.068 51.8681 235.11 51.6001C235.133 50.9838 234.918 50.3822 234.51 49.9201C234.297 49.612 234.023 49.3509 233.705 49.1527C233.388 48.9546 233.032 48.8237 232.662 48.7681C231.912 48.6601 230.952 48.9361 229.782 49.6081L226.5 43.7341C228.383 42.5154 230.651 42.0367 232.866 42.3901C234.994 42.7621 237.008 44.2421 238.908 46.8301C240.384 48.8541 241.156 50.7921 241.224 52.6441C241.32 53.7727 241.121 54.907 240.646 55.9356C240.172 56.9642 239.439 57.852 238.518 58.5121C237.721 59.0914 236.782 59.4439 235.8 59.5321C234.227 59.5631 232.661 59.3257 231.168 58.8301C230.176 58.4921 229.132 58.3336 228.084 58.3621C227.341 58.4949 226.642 58.8103 226.05 59.2801ZM220.65 54.8521L224.79 60.5041L219.804 64.1521L215.664 58.5061L220.65 54.8521Z" fill="white"/>
<path d="M77.0038 134.142C71.9321 134.133 66.9569 132.755 62.6039 130.152C56.5138 126.552 52.2119 120.9 50.7479 114.678C46.502 114.382 42.5109 112.544 39.5269 109.509C36.5428 106.474 34.7719 102.452 34.5479 98.202C33.2697 97.3151 32.1397 96.2317 31.1999 94.992C28.9169 92.0829 27.789 88.4331 28.0326 84.7433C28.2762 81.0534 29.8743 77.5836 32.5199 75C31.5159 70.7337 31.6217 66.2814 32.827 62.0676C34.0323 57.8538 36.297 54.019 39.4051 50.9289C42.5132 47.8388 46.3611 45.5965 50.5819 44.4158C54.8026 43.235 59.2555 43.1552 63.5159 44.184C64.4453 42.061 65.9113 40.2164 67.7696 38.8315C69.6278 37.4466 71.8145 36.569 74.1146 36.2852C76.4147 36.0013 78.7491 36.3208 80.8884 37.2123C83.0276 38.1038 84.8981 39.5367 86.3159 41.37C86.9739 42.221 87.5278 43.1475 87.9659 44.13C91.3205 43.5787 94.7605 43.8962 97.9576 45.0522C101.155 46.2083 104.002 48.1642 106.228 50.7335C108.455 53.3028 109.986 56.3997 110.675 59.7287C111.364 63.0578 111.189 66.5079 110.166 69.75C112.362 71.6211 113.977 74.0825 114.817 76.8428C115.658 79.603 115.69 82.5464 114.91 85.3243C114.13 88.1022 112.57 90.5983 110.414 92.5169C108.259 94.4356 105.599 95.6964 102.75 96.15C101.464 101.014 98.6085 105.316 94.6259 108.39C92.1192 110.336 89.2382 111.744 86.1628 112.527C83.0875 113.309 79.8838 113.449 76.7519 112.938C76.6919 118.764 78.0419 126.666 84.5519 132.318C84.6147 132.374 84.6616 132.446 84.688 132.526C84.7143 132.606 84.7191 132.691 84.7019 132.774C84.684 132.857 84.6437 132.933 84.5855 132.994C84.5274 133.056 84.4534 133.1 84.3718 133.122C81.9761 133.807 79.4956 134.151 77.0038 134.142ZM57.4379 44.4C53.6935 44.4114 50.0005 45.2729 46.6376 46.9195C43.2746 48.5661 40.3295 50.9547 38.0242 53.9054C35.7189 56.856 34.1137 60.2916 33.3296 63.953C32.5455 67.6144 32.6031 71.406 33.4979 75.042C33.5184 75.1234 33.5165 75.2088 33.4922 75.2891C33.4678 75.3695 33.4221 75.4417 33.3599 75.498C30.7977 77.9024 29.2284 81.1787 28.9608 84.6822C28.6932 88.1856 29.7467 91.6623 31.9139 94.428C32.8669 95.6524 34.0141 96.7124 35.3099 97.566C35.3726 97.6066 35.4249 97.6614 35.4625 97.7261C35.5 97.7907 35.5217 97.8633 35.5259 97.938C35.6885 102.054 37.385 105.959 40.2819 108.887C43.1787 111.815 47.0662 113.553 51.1799 113.76C51.2828 113.766 51.3809 113.805 51.459 113.873C51.5371 113.94 51.5909 114.031 51.6118 114.132C52.9378 120.234 57.1319 125.778 63.1079 129.342C69.1629 132.994 76.4165 134.102 83.2859 132.426C76.8479 126.426 75.6479 118.23 75.8038 112.35C75.8063 112.282 75.8233 112.215 75.8537 112.154C75.884 112.093 75.927 112.039 75.9798 111.996C76.0326 111.953 76.094 111.921 76.1598 111.904C76.2257 111.886 76.2946 111.883 76.3619 111.894C81.8931 112.94 87.615 111.836 92.3603 108.808C97.1056 105.78 100.517 101.055 101.898 95.598C101.919 95.5063 101.968 95.4232 102.037 95.36C102.107 95.2967 102.195 95.2562 102.288 95.244C105.017 94.8667 107.577 93.7011 109.653 91.8901C111.729 90.0792 113.232 87.7016 113.977 85.049C114.722 82.3964 114.676 79.5841 113.845 76.9571C113.015 74.3301 111.436 72.0026 109.302 70.26C109.228 70.2002 109.174 70.1194 109.147 70.0283C109.121 69.9373 109.122 69.8402 109.152 69.75C110.196 66.6232 110.406 63.2783 109.762 60.0455C109.118 56.8126 107.642 53.8036 105.48 51.3154C103.318 48.8273 100.544 46.946 97.4326 45.8574C94.3212 44.7688 90.9796 44.5105 87.7379 45.108C87.6317 45.1285 87.5216 45.1117 87.4265 45.0603C87.3313 45.0089 87.2569 44.9261 87.2159 44.826C86.276 42.5461 84.6784 40.5978 82.6269 39.2294C80.5753 37.8611 78.1627 37.1349 75.6967 37.1432C73.2306 37.1516 70.823 37.8942 68.7808 39.2764C66.7385 40.6586 65.1542 42.6178 64.2299 44.904C64.186 45.0086 64.1065 45.0944 64.0055 45.146C63.9044 45.1977 63.7883 45.2118 63.6778 45.186C61.6392 44.6627 59.5426 44.3987 57.4379 44.4Z" fill="#E6E6E6"/>
<path d="M60.3533 84.0001L52.0673 85.9501L51.8753 85.1221C51.5616 83.9659 51.45 82.7643 51.5453 81.5701C51.659 80.6109 51.95 79.6811 52.4033 78.8281C53.4178 77.1434 54.5402 75.526 55.7633 73.9861C56.7173 72.7441 57.1013 71.7301 56.9093 70.9321C56.8504 70.5837 56.7176 70.252 56.52 69.9591C56.3223 69.6663 56.0643 69.4191 55.7633 69.2341C55.0451 68.8843 54.2193 68.8262 53.4593 69.0721C52.9812 69.1689 52.5283 69.3632 52.1287 69.643C51.7292 69.9228 51.3917 70.2819 51.1373 70.6981C50.6213 71.5441 50.4713 72.8341 50.6813 74.5801L41.9993 75.5041C41.492 72.634 42.0602 69.6776 43.5953 67.2001C45.1193 64.8361 47.9193 63.1761 51.9953 62.2201C55.1633 61.4721 57.8773 61.5301 60.1373 62.3941C63.2013 63.5581 65.0853 65.6321 65.7893 68.6161C66.0819 69.8804 66.0196 71.201 65.6093 72.4321C65.2093 73.7401 64.1433 75.4721 62.4113 77.6281C61.2113 79.1401 60.5053 80.2921 60.2933 81.0841C60.0688 82.0458 60.0895 83.0484 60.3533 84.0001ZM52.3013 88.2001L61.1813 86.1121L62.9993 93.9361L54.1493 96.0001L52.3013 88.2001Z" fill="#EBEBEB"/>
<path d="M81.4499 66.474L75.7019 64.722L75.8759 64.122C76.0961 63.3058 76.4532 62.5329 76.9319 61.836C77.342 61.2903 77.8508 60.8263 78.4319 60.468C79.6487 59.8084 80.9074 59.2291 82.1999 58.734C83.2199 58.334 83.8199 57.848 83.9999 57.276C84.088 57.0421 84.125 56.7921 84.1084 56.5427C84.0919 56.2932 84.0221 56.0503 83.9039 55.83C83.5877 55.3628 83.1047 55.0343 82.5539 54.912C82.2276 54.8032 81.8825 54.7625 81.5399 54.7925C81.1972 54.8224 80.8644 54.9223 80.5619 55.086C79.7827 55.6205 79.2008 56.3964 78.9059 57.294L73.2539 54.78C73.968 52.8486 75.3694 51.2484 77.1899 50.286C78.9579 49.378 81.2539 49.356 84.0779 50.22C85.9804 50.6988 87.6923 51.7451 88.9859 53.22C89.6812 53.9935 90.1622 54.9353 90.3811 55.952C90.6001 56.9687 90.5493 58.025 90.2339 59.016C89.9626 59.8918 89.4562 60.6762 88.7699 61.284C87.6272 62.1721 86.3433 62.8617 84.9719 63.324C84.0595 63.6261 83.2067 64.085 82.4519 64.68C81.9745 65.1859 81.6302 65.8023 81.4499 66.474ZM75.0419 66.192L81.1979 68.064L79.5479 73.5L73.3859 71.628L75.0419 66.192Z" fill="#EBEBEB"/>
<path d="M150 256.536C214.249 256.536 266.334 253.495 266.334 249.744C266.334 245.993 214.249 242.952 150 242.952C85.7505 242.952 33.666 245.993 33.666 249.744C33.666 253.495 85.7505 256.536 150 256.536Z" fill="#F5F5F5"/>
<path d="M94.5662 148.464L94.0142 148.23C94.4481 147.277 94.7411 146.267 94.8842 145.23L95.4842 145.296C95.3339 146.391 95.0247 147.458 94.5662 148.464ZM94.3322 141.6C93.7741 140.353 92.9059 139.27 91.8104 138.454C90.7149 137.638 89.4286 137.116 88.0742 136.938L88.1702 136.338C89.623 136.531 91.0021 137.093 92.1763 137.97C93.3505 138.847 94.2806 140.01 94.8782 141.348L94.3322 141.6Z" fill="#E81439"/>
<path d="M91.1992 154.5L85.2832 157.2L85.0192 156.6C84.6146 155.784 84.3528 154.906 84.2452 154.002C84.1882 153.266 84.2675 152.525 84.4792 151.818C84.9914 150.409 85.5926 149.034 86.2792 147.702C86.8072 146.634 86.9412 145.816 86.6812 145.248C86.5848 144.997 86.4359 144.769 86.2445 144.579C86.0531 144.39 85.8236 144.244 85.5712 144.15C84.9821 144 84.3581 144.079 83.8252 144.372C83.4828 144.518 83.1737 144.732 82.9168 145.001C82.6599 145.27 82.4607 145.589 82.3312 145.938C82.0712 146.638 82.1512 147.626 82.5712 148.902L76.1992 150.894C75.4023 148.818 75.4023 146.52 76.1992 144.444C76.9992 142.444 78.8432 140.79 81.7312 139.482C83.9872 138.45 86.0272 138.096 87.8452 138.402C88.9592 138.536 90.0189 138.958 90.9205 139.626C91.822 140.294 92.5342 141.185 92.9872 142.212C93.3922 143.114 93.5417 144.11 93.4192 145.092C93.1294 146.625 92.5816 148.098 91.7992 149.448C91.2731 150.342 90.9114 151.324 90.7312 152.346C90.706 153.092 90.8668 153.832 91.1992 154.5ZM85.7992 158.844L92.1232 156L94.6612 161.574L88.3372 164.4L85.7992 158.844Z" fill="#E81439"/>
<path d="M76.5837 167.838L73.5837 171.918L73.1997 171.6C72.6145 171.194 72.1015 170.693 71.6817 170.118C71.3629 169.638 71.1369 169.103 71.0157 168.54C70.8218 167.387 70.7076 166.222 70.6737 165.054C70.6257 164.124 70.4037 163.518 70.0137 163.254C69.8497 163.115 69.6574 163.013 69.4501 162.956C69.2429 162.899 69.0256 162.888 68.8137 162.924C68.3545 163.044 67.9592 163.336 67.7096 163.74C67.531 163.968 67.401 164.231 67.3277 164.512C67.2544 164.793 67.2394 165.085 67.2836 165.372C67.492 166.139 67.9449 166.817 68.5737 167.304L64.9737 171.09C63.6406 169.978 62.7629 168.415 62.5077 166.698C62.2877 165.042 62.9157 163.212 64.3917 161.208C65.307 159.834 66.6163 158.77 68.1477 158.154C68.9576 157.819 69.8409 157.702 70.7101 157.814C71.5793 157.925 72.4044 158.262 73.1036 158.79C73.7244 159.25 74.2061 159.873 74.4957 160.59C74.8808 161.75 75.0674 162.967 75.0477 164.19C75.027 165.006 75.153 165.819 75.4196 166.59C75.6972 167.097 76.0974 167.526 76.5837 167.838ZM74.5616 172.854L77.7777 168.486L81.6297 171.324L78.4137 175.692L74.5616 172.854Z" fill="#E81439"/>
<path d="M140.454 247.584C139.959 247.584 139.473 247.449 139.05 247.192C138.627 246.934 138.282 246.566 138.054 246.126C135.654 241.47 132.612 236.004 127.164 230.088C126.851 229.748 126.63 229.333 126.525 228.883C126.42 228.433 126.433 227.963 126.564 227.52C128.586 220.494 131.766 210.888 131.796 210.792C131.898 210.445 132.068 210.122 132.298 209.842C132.527 209.562 132.81 209.331 133.13 209.163C133.45 208.995 133.801 208.894 134.162 208.864C134.522 208.834 134.885 208.878 135.228 208.991C135.572 209.105 135.889 209.287 136.16 209.525C136.432 209.764 136.653 210.055 136.809 210.381C136.966 210.707 137.056 211.061 137.073 211.422C137.09 211.784 137.034 212.145 136.908 212.484C136.878 212.574 134.136 220.848 132.15 227.574C136.384 232.457 139.977 237.861 142.842 243.654C143.053 244.065 143.154 244.524 143.137 244.986C143.119 245.447 142.984 245.897 142.743 246.291C142.502 246.686 142.164 247.011 141.761 247.238C141.359 247.464 140.904 247.583 140.442 247.584H140.454Z" fill="#E81439"/>
<path d="M144.936 249.744H124.062L135.127 243.468L144.396 243.828L144.936 249.744Z" fill="#263238"/>
<path d="M142.945 224.455C152.446 221.485 158.152 212.693 155.69 204.818C153.228 196.943 143.53 192.966 134.029 195.937C124.528 198.907 118.822 207.699 121.284 215.574C123.746 223.449 133.444 227.426 142.945 224.455Z" fill="#263238"/>
<path d="M90.9899 200.4C90.3687 200.397 89.7674 200.18 89.2878 199.785C88.8083 199.39 88.48 198.842 88.3586 198.232C88.2372 197.623 88.3301 196.991 88.6215 196.442C88.913 195.893 89.3851 195.462 89.9579 195.222C90.4242 195.027 90.8337 194.717 91.1483 194.322C91.463 193.927 91.6727 193.458 91.7579 192.96C91.8117 192.374 92.0563 191.822 92.454 191.388C92.8518 190.955 93.3808 190.664 93.9599 190.56C94.6281 190.424 95.289 190.253 95.9399 190.05C99.5879 188.988 104.106 187.65 118.326 191.646C132.354 183.804 132.516 169.092 132.516 168.456C132.516 167.743 132.798 167.059 133.3 166.553C133.803 166.047 134.485 165.761 135.198 165.756C135.908 165.756 136.59 166.036 137.094 166.536C137.599 167.036 137.886 167.716 137.892 168.426C137.892 169.212 137.808 187.68 119.892 196.926C119.281 197.243 118.572 197.311 117.912 197.118C104.352 193.206 100.512 194.322 97.4699 195.216L96.6419 195.456C96.2416 196.516 95.6284 197.483 94.84 198.297C94.0516 199.112 93.1048 199.756 92.0579 200.19C91.7198 200.331 91.3565 200.403 90.9899 200.4Z" fill="#263238"/>
<path d="M122.449 181.134C117.343 160.842 103.741 108.498 147.331 105.3C186.439 102.426 197.167 154.5 199.777 172.5C201.083 181.608 201.793 190.791 201.901 199.992C201.95 204.646 200.373 209.171 197.442 212.786C194.51 216.401 190.409 218.879 185.845 219.792C164.539 224.124 144.379 224.736 130.795 219.378C129.01 218.658 127.507 217.38 126.509 215.735C125.511 214.091 125.072 212.167 125.257 210.252C125.779 204.444 125.791 194.4 122.449 181.134Z" fill="#E81439"/>
<path opacity="0.1" d="M199.801 172.512C197.341 155.52 187.669 108.312 153.805 105.312C151.873 105.116 149.927 105.496 148.211 106.405C146.495 107.314 145.087 108.71 144.163 110.418C142.651 113.346 142.699 116.892 144.961 120.402C152.401 132 170.203 172.002 167.515 193.8C166.315 203.718 160.069 211.638 165.481 222.786C172.322 222.187 179.122 221.185 185.845 219.786C190.409 218.873 194.511 216.395 197.442 212.78C200.374 209.165 201.951 204.64 201.901 199.986C201.8 190.792 201.099 181.614 199.801 172.512Z" fill="black"/>
<path d="M193.945 200.274C193.874 200.274 193.807 200.246 193.756 200.197C193.706 200.148 193.676 200.081 193.675 200.01C193.573 190.821 192.865 181.65 191.557 172.554C185.077 127.758 167.635 105.108 141.097 107.064C141.061 107.066 141.026 107.062 140.992 107.051C140.958 107.039 140.927 107.021 140.901 106.998C140.874 106.974 140.852 106.946 140.836 106.914C140.82 106.882 140.811 106.848 140.809 106.812C140.806 106.741 140.83 106.671 140.877 106.617C140.924 106.564 140.99 106.53 141.061 106.524C167.911 104.544 185.563 127.356 192.061 172.476C193.368 181.596 194.078 190.792 194.185 200.004C194.185 200.076 194.156 200.144 194.106 200.195C194.055 200.246 193.987 200.274 193.915 200.274H193.945Z" fill="#263238"/>
<path d="M193.538 225.885C203.039 222.915 208.746 214.123 206.284 206.247C203.822 198.372 194.124 194.396 184.623 197.366C175.122 200.336 169.416 209.128 171.878 217.003C174.34 224.878 184.037 228.855 193.538 225.885Z" fill="#263238"/>
<path d="M195.181 247.584C194.686 247.585 194.2 247.45 193.776 247.192C193.353 246.935 193.009 246.566 192.781 246.126C190.381 241.47 187.339 236.004 181.885 230.088C181.574 229.747 181.356 229.332 181.25 228.882C181.145 228.433 181.157 227.964 181.285 227.52C183.313 220.494 186.487 210.888 186.523 210.792C186.634 210.457 186.811 210.147 187.041 209.879C187.272 209.612 187.554 209.393 187.869 209.235C188.185 209.076 188.529 208.981 188.881 208.956C189.233 208.93 189.587 208.974 189.922 209.085C190.258 209.196 190.568 209.372 190.835 209.603C191.102 209.834 191.321 210.115 191.48 210.431C191.638 210.747 191.733 211.09 191.759 211.443C191.784 211.795 191.74 212.149 191.629 212.484C191.599 212.574 188.863 220.848 186.877 227.574C191.112 232.456 194.703 237.86 197.563 243.654C197.774 244.065 197.875 244.524 197.858 244.986C197.841 245.447 197.705 245.897 197.464 246.291C197.223 246.686 196.885 247.012 196.482 247.238C196.08 247.464 195.625 247.583 195.163 247.584H195.181Z" fill="#E81439"/>
<path d="M189.528 165.546C188.926 165.546 188.342 165.345 187.867 164.974C187.393 164.604 187.057 164.085 186.912 163.501C186.767 162.917 186.822 162.301 187.067 161.752C187.313 161.202 187.736 160.751 188.268 160.47C188.784 160.194 200.502 153.792 203.79 138.408C195.99 135.144 181.938 127.77 178.866 124.062C178.564 123.703 178.357 123.274 178.266 122.814C177.911 120.598 178.117 118.329 178.866 116.214L177.45 113.478C177.122 112.841 177.061 112.101 177.279 111.419C177.497 110.737 177.977 110.17 178.614 109.842C179.25 109.514 179.991 109.452 180.673 109.671C181.355 109.889 181.922 110.369 182.25 111.006L184.284 114.942C184.503 115.354 184.61 115.816 184.596 116.282C184.581 116.748 184.444 117.203 184.2 117.6C183.651 118.696 183.418 119.924 183.528 121.146C186.99 124.272 200.928 131.67 207.786 134.208C208.367 134.423 208.856 134.833 209.17 135.368C209.484 135.902 209.603 136.529 209.508 137.142C206.466 156.804 191.424 164.904 190.788 165.24C190.399 165.443 189.967 165.548 189.528 165.546Z" fill="#263238"/>
<path d="M180.943 123.69C180.701 123.689 180.464 123.623 180.256 123.498C180.048 123.374 179.878 123.196 179.763 122.983C179.647 122.77 179.591 122.53 179.601 122.288C179.61 122.046 179.684 121.811 179.815 121.608C179.911 121.464 182.131 118.11 185.515 117.204C185.686 117.158 185.864 117.147 186.039 117.17C186.214 117.193 186.383 117.25 186.536 117.338C186.689 117.427 186.823 117.544 186.93 117.684C187.038 117.825 187.117 117.984 187.162 118.155C187.208 118.326 187.22 118.504 187.197 118.679C187.174 118.854 187.116 119.023 187.028 119.175C186.94 119.328 186.822 119.462 186.682 119.57C186.542 119.677 186.382 119.756 186.211 119.802C183.853 120.438 182.083 123.054 182.071 123.078C181.949 123.266 181.782 123.42 181.585 123.527C181.388 123.634 181.167 123.69 180.943 123.69Z" fill="#263238"/>
<path d="M199.663 249.744H178.789L189.853 243.468L199.123 243.828L199.663 249.744Z" fill="#263238"/>
<path d="M155.952 169.352C163.847 168.653 169.738 162.325 169.108 155.219C168.479 148.112 161.569 142.918 153.673 143.617C145.778 144.316 139.887 150.644 140.516 157.75C141.146 164.857 148.056 170.051 155.952 169.352Z" fill="white"/>
<path d="M153.27 164.668C155.364 164.071 156.181 160.498 155.095 156.686C154.009 152.875 151.432 150.268 149.338 150.865C147.244 151.461 146.427 155.035 147.513 158.846C148.599 162.658 151.176 165.264 153.27 164.668Z" fill="#263238"/>
<path d="M138.481 158.916C147.541 157.752 165.481 152.634 168.439 150.57C166.111 143.754 155.239 137.922 145.567 141.21C136.801 144.168 138.481 158.916 138.481 158.916Z" fill="#263238"/>
<path d="M140.238 163.296C151.488 161.16 166.11 157.572 170.292 155.274C170.034 162.606 167.892 170.04 156.42 172.554C147.036 174.6 140.238 163.296 140.238 163.296Z" fill="#263238"/>
<path d="M130.971 170.344C135.039 167.652 135.575 161.297 132.169 156.148C128.762 151 122.703 149.008 118.635 151.699C114.567 154.391 114.031 160.746 117.437 165.895C120.844 171.044 126.903 173.035 130.971 170.344Z" fill="white"/>
<path d="M125.005 161.208C125.683 164.424 125.095 167.106 123.685 167.208C122.275 167.31 120.583 164.772 119.899 161.556C119.215 158.34 119.809 155.664 121.214 155.556C122.618 155.448 124.321 157.992 125.005 161.208Z" fill="#263238"/>
<path d="M113.85 159.978C119.928 160.692 132 159.894 134.004 158.778C132.522 153 125.334 146.4 118.8 147.24C112.908 147.996 113.85 159.978 113.85 159.978Z" fill="#263238"/>
<path d="M114.979 163.764C122.533 164.106 132.379 163.914 135.187 162.852C134.929 168.618 133.417 174.114 125.701 174.024C119.401 173.952 114.979 163.764 114.979 163.764Z" fill="#263238"/>
<path d="M158.456 137.58C151.59 137.617 144.875 135.567 139.202 131.7C138.633 131.269 138.258 130.631 138.16 129.924C138.062 129.217 138.249 128.501 138.68 127.932C139.11 127.363 139.749 126.988 140.455 126.89C141.162 126.793 141.879 126.979 142.448 127.41C148.798 131.551 156.502 133.079 163.952 131.676C164.299 131.61 164.655 131.613 165.001 131.685C165.347 131.757 165.675 131.897 165.967 132.096C166.259 132.295 166.509 132.549 166.703 132.845C166.896 133.14 167.03 133.471 167.096 133.818C167.161 134.165 167.158 134.522 167.086 134.867C167.014 135.213 166.875 135.541 166.676 135.833C166.477 136.125 166.222 136.375 165.927 136.569C165.631 136.763 165.301 136.896 164.954 136.962C162.812 137.37 160.636 137.576 158.456 137.58Z" fill="#263238"/>
<path d="M110.329 132.942C109.898 132.94 109.474 132.834 109.092 132.635C108.711 132.436 108.382 132.148 108.134 131.795C107.886 131.443 107.726 131.036 107.668 130.609C107.609 130.183 107.653 129.748 107.797 129.342C109.219 125.37 111.589 122.796 114.829 121.68C120.697 119.658 127.021 123.588 127.291 123.756C127.88 124.143 128.294 124.746 128.444 125.435C128.594 126.124 128.467 126.845 128.092 127.442C127.717 128.039 127.122 128.464 126.436 128.628C125.75 128.791 125.027 128.679 124.423 128.316C123.223 127.554 119.401 125.79 116.563 126.774C114.931 127.344 113.719 128.778 112.861 131.166C112.672 131.686 112.328 132.136 111.875 132.453C111.422 132.771 110.882 132.942 110.329 132.942Z" fill="#263238"/>
<path d="M131.538 178.35C131.463 178.35 131.388 178.338 131.316 178.314C131.112 178.257 130.94 178.121 130.836 177.936C130.733 177.752 130.707 177.534 130.764 177.33C131.003 176.681 131.367 176.085 131.837 175.578C132.306 175.07 132.872 174.66 133.5 174.372C136.584 172.782 141.3 173.112 147.486 175.35C147.586 175.386 147.678 175.442 147.756 175.514C147.835 175.585 147.898 175.672 147.943 175.769C147.988 175.865 148.013 175.97 148.017 176.076C148.021 176.182 148.003 176.288 147.966 176.388C147.931 176.488 147.876 176.58 147.804 176.658C147.733 176.736 147.647 176.8 147.551 176.844C147.455 176.889 147.351 176.914 147.245 176.918C147.139 176.922 147.033 176.905 146.934 176.868C139.836 174.3 136.134 174.852 134.334 175.776C133.435 176.157 132.721 176.874 132.342 177.774C132.291 177.945 132.184 178.095 132.038 178.199C131.893 178.303 131.717 178.356 131.538 178.35Z" fill="#263238"/>
<path d="M106.13 175.392C96.7414 176.226 87.6104 178.907 79.2617 183.282C83.8937 182.406 100.472 202.92 104.732 218.736C112.598 215.826 121.766 213.84 131.54 212.286C125.618 195.984 114.788 177.51 106.13 175.392Z" fill="#E81439"/>
<path opacity="0.6" d="M106.13 175.392C96.7414 176.226 87.6104 178.907 79.2617 183.282C83.8937 182.406 100.472 202.92 104.732 218.736C112.598 215.826 121.766 213.84 131.54 212.286C125.618 195.984 114.788 177.51 106.13 175.392Z" fill="white"/>
<path d="M106.129 175.392C95.8808 174.234 79.2428 182.814 79.2428 182.814C76.2968 184.692 77.0948 188.214 78.7028 189.708C80.2448 187.494 97.4408 181.734 103.903 180.96C100.693 177.984 103.681 175.8 106.129 175.392Z" fill="#E81439"/>
<path opacity="0.2" d="M106.129 175.392C95.8808 174.234 79.2428 182.814 79.2428 182.814C76.2968 184.692 77.0948 188.214 78.7028 189.708C80.2448 187.494 97.4408 181.734 103.903 180.96C100.693 177.984 103.681 175.8 106.129 175.392Z" fill="white"/>
<path d="M90.9965 200.4C90.5498 200.402 90.1095 200.293 89.7149 200.084C89.3203 199.874 88.9835 199.571 88.7345 199.2C86.7845 196.2 88.0025 191.646 88.2665 190.758C88.4913 190.099 88.9624 189.553 89.5809 189.234C90.1995 188.915 90.9175 188.848 91.5846 189.046C92.2517 189.245 92.816 189.694 93.1593 190.299C93.5027 190.905 93.5984 191.62 93.4265 192.294C92.9885 193.8 92.8985 195.726 93.2465 196.254C93.636 196.852 93.772 197.581 93.6246 198.28C93.4772 198.978 93.0585 199.59 92.4605 199.98C92.0246 200.261 91.5152 200.408 90.9965 200.4Z" fill="#263238"/>
<path d="M81.7988 82.764H72.7148V78.666L81.7988 67.866H86.1428V78.9H88.3928V82.764H86.1428V86.118H81.7988V82.764ZM81.7988 78.9V73.254L76.9988 78.9H81.7988Z" fill="#E81439"/>
<path d="M89.9477 77.0759C89.9477 73.6679 90.5617 71.2819 91.7897 69.9179C93.0177 68.5539 94.8877 67.8719 97.3997 67.8719C98.4188 67.8376 99.4356 67.9901 100.4 68.3219C101.104 68.5753 101.749 68.9693 102.296 69.4799C102.755 69.9208 103.146 70.4285 103.454 70.9859C103.755 71.5696 103.983 72.1883 104.132 72.8279C104.47 74.202 104.638 75.6128 104.63 77.0279C104.63 80.2799 104.08 82.6619 102.98 84.1739C101.88 85.6859 99.9757 86.4279 97.2677 86.3999C96.008 86.4522 94.7538 86.2055 93.6077 85.6799C92.6691 85.1901 91.878 84.459 91.3157 83.5619C90.8172 82.727 90.4756 81.8078 90.3077 80.8499C90.0593 79.6075 89.9386 78.3429 89.9477 77.0759ZM94.8917 77.0759C94.8917 79.3639 95.0917 80.9239 95.4917 81.7559C95.6231 82.1185 95.8616 82.4327 96.1755 82.6566C96.4895 82.8806 96.8641 83.0038 97.2497 83.0099C97.4935 83.0146 97.7357 82.9696 97.9616 82.8778C98.1874 82.786 98.3923 82.6493 98.5637 82.4759C98.9936 82.0074 99.2772 81.4235 99.3797 80.7959C99.5931 79.6084 99.6816 78.4019 99.6437 77.1959C99.6437 74.7959 99.4457 73.2119 99.0437 72.3959C98.8977 72.0392 98.6482 71.7342 98.3274 71.5204C98.0067 71.3065 97.6293 71.1935 97.2437 71.1959C96.8491 71.1853 96.4615 71.3013 96.1375 71.527C95.8136 71.7526 95.5705 72.0761 95.4437 72.4499C95.0797 73.2779 94.8957 74.8239 94.8917 77.0879V77.0759Z" fill="#E81439"/>
<path d="M106.662 77.0759C106.662 73.6679 107.276 71.2819 108.504 69.9179C109.732 68.5539 111.602 67.8719 114.114 67.8719C115.133 67.8376 116.15 67.9901 117.114 68.3219C117.818 68.5753 118.463 68.9693 119.01 69.4799C119.472 69.9192 119.862 70.4272 120.168 70.9859C120.469 71.5696 120.697 72.1883 120.846 72.8279C121.187 74.2018 121.356 75.6125 121.35 77.0279C121.35 80.2799 120.798 82.6619 119.694 84.1739C118.59 85.6859 116.692 86.4279 114 86.3999C112.74 86.4522 111.486 86.2055 110.34 85.6799C109.402 85.1917 108.612 84.4601 108.054 83.5619C107.551 82.7287 107.207 81.809 107.04 80.8499C106.786 79.6081 106.659 78.3435 106.662 77.0759ZM111.606 77.0759C111.606 79.3639 111.806 80.9239 112.206 81.7559C112.338 82.1185 112.576 82.4327 112.89 82.6566C113.204 82.8806 113.579 83.0038 113.964 83.0099C114.208 83.0146 114.45 82.9696 114.676 82.8778C114.902 82.786 115.107 82.6493 115.278 82.4759C115.708 82.0065 115.993 81.4233 116.1 80.7959C116.31 79.608 116.399 78.4018 116.364 77.1959C116.364 74.7959 116.164 73.1959 115.764 72.3959C115.617 72.0401 115.367 71.7361 115.047 71.5224C114.726 71.3088 114.349 71.1951 113.964 71.1959C113.57 71.1862 113.183 71.3026 112.859 71.5281C112.535 71.7537 112.292 72.0766 112.164 72.4499C111.788 73.2779 111.6 74.8239 111.6 77.0879L111.606 77.0759Z" fill="#E81439"/>
<path d="M132.535 68.178H147.391V72H138.091V74.856H146.719V78.516H138.091V82.05H147.661V86.112H132.535V68.178Z" fill="#263238"/>
<path d="M150.721 86.1181V68.1781H159.961C161.285 68.1312 162.61 68.2808 163.891 68.6221C164.784 68.9031 165.556 69.4783 166.081 70.2541C166.478 70.8238 166.753 71.4693 166.89 72.1501C167.026 72.831 167.021 73.5327 166.875 74.2115C166.729 74.8903 166.444 75.5317 166.039 76.0958C165.634 76.6599 165.117 77.1345 164.521 77.4901C163.913 77.8264 163.257 78.0672 162.577 78.2041C163.087 78.3505 163.573 78.573 164.017 78.8641C164.349 79.1413 164.648 79.4576 164.905 79.8061C165.201 80.1512 165.463 80.525 165.685 80.9221L168.367 86.1181H162.103L159.139 80.6341C158.905 80.109 158.564 79.6388 158.137 79.2541C157.739 78.9788 157.265 78.8341 156.781 78.8401H156.289V86.1181H150.721ZM156.289 75.4501H158.629C159.123 75.4109 159.613 75.3286 160.093 75.2041C160.452 75.1343 160.773 74.9332 160.993 74.6401C161.262 74.2862 161.391 73.8452 161.354 73.4021C161.318 72.9589 161.118 72.545 160.795 72.2401C160.172 71.8682 159.446 71.7063 158.725 71.7781H156.289V75.4501Z" fill="#263238"/>
<path d="M170.215 86.118V68.178H179.455C180.78 68.1306 182.104 68.2803 183.385 68.622C184.278 68.903 185.05 69.4782 185.575 70.254C185.97 70.824 186.245 71.469 186.381 72.1493C186.517 72.8296 186.512 73.5305 186.366 74.2088C186.221 74.8871 185.937 75.5283 185.534 76.0927C185.13 76.6571 184.615 77.1326 184.021 77.49C183.412 77.8272 182.754 78.0681 182.071 78.204C183.028 78.4103 183.864 78.9861 184.399 79.806C184.695 80.1511 184.957 80.5249 185.179 80.922L187.861 86.118H181.597L178.633 80.634C178.399 80.1089 178.058 79.6387 177.631 79.254C177.233 78.9787 176.759 78.834 176.275 78.84H175.801V86.118H170.215ZM175.801 75.45H178.141C178.635 75.4108 179.125 75.3285 179.605 75.204C179.966 75.1369 180.287 74.9353 180.505 74.64C180.774 74.2861 180.903 73.8451 180.866 73.402C180.83 72.9588 180.63 72.5449 180.307 72.24C179.685 71.8665 178.959 71.7044 178.237 71.778H175.801V75.45Z" fill="#263238"/>
<path d="M188.509 77.1601C188.509 74.2321 189.325 71.9521 190.957 70.3201C192.589 68.6881 194.861 67.8721 197.773 67.8721C200.761 67.8721 203.063 68.6721 204.679 70.2721C206.295 71.8721 207.095 74.1181 207.079 77.0101C207.161 78.7988 206.805 80.5804 206.041 82.2001C205.355 83.5266 204.29 84.6189 202.981 85.3381C201.439 86.1109 199.725 86.4765 198.001 86.4001C196.276 86.4588 194.56 86.1287 192.979 85.4341C191.621 84.7608 190.496 83.6947 189.751 82.3741C188.878 80.7785 188.449 78.9779 188.509 77.1601ZM194.053 77.1601C194.053 78.9721 194.391 80.2741 195.067 81.0661C195.423 81.4382 195.851 81.7343 196.324 81.9366C196.797 82.139 197.307 82.2433 197.821 82.2433C198.336 82.2433 198.846 82.139 199.319 81.9366C199.792 81.7343 200.22 81.4382 200.575 81.0661C201.227 80.2901 201.555 78.8901 201.559 76.8661C201.559 75.1821 201.217 73.9481 200.533 73.1641C200.187 72.7762 199.758 72.4704 199.279 72.2691C198.799 72.0677 198.281 71.9758 197.761 72.0001C197.252 71.9825 196.745 72.0815 196.279 72.2894C195.813 72.4974 195.401 72.8088 195.073 73.2001C194.401 74.0461 194.053 75.3601 194.053 77.1841V77.1601Z" fill="#263238"/>
<path d="M210.162 86.118V68.178H219.396C220.721 68.1306 222.045 68.2803 223.326 68.622C224.22 68.9013 224.993 69.4769 225.516 70.254C226.092 71.1105 226.384 72.1265 226.35 73.158C226.375 74.0596 226.155 74.951 225.714 75.738C225.288 76.4611 224.685 77.0639 223.962 77.49C223.355 77.8263 222.699 78.0671 222.018 78.204C222.529 78.3504 223.014 78.5729 223.458 78.864C223.789 79.1427 224.087 79.4588 224.346 79.806C224.641 80.1508 224.901 80.5248 225.12 80.922L227.808 86.118H221.544L218.58 80.634C218.344 80.1103 218.003 79.6406 217.578 79.254C217.178 78.9786 216.702 78.834 216.216 78.84H215.73V86.118H210.162ZM215.73 75.45H218.064C218.56 75.411 219.052 75.3287 219.534 75.204C219.894 75.1342 220.215 74.9331 220.434 74.64C220.665 74.3439 220.788 73.9776 220.782 73.602C220.797 73.3518 220.755 73.1014 220.659 72.8697C220.564 72.638 220.417 72.4309 220.23 72.264C219.608 71.8905 218.882 71.7284 218.16 71.802H215.73V75.45Z" fill="#263238"/>
</svg>
