<svg width="228" height="249" viewBox="0 0 228 249" fill="none" xmlns="http://www.w3.org/2000/svg">
<path d="M105.528 248.718C163.809 248.718 211.055 244.488 211.055 239.271C211.055 234.054 163.809 229.825 105.528 229.825C47.2464 229.825 0 234.054 0 239.271C0 244.488 47.2464 248.718 105.528 248.718Z" fill="#E8BDA2"/>
<path d="M169.129 27.6668H72.6333L120.882 2.00008L121.048 2.08915L169.129 27.6668ZM75.4766 26.957H166.286L120.88 2.80166L75.4766 26.957Z" fill="#806960"/>
<path d="M122.758 9.38155C125.246 8.35105 126.427 5.4989 125.397 3.0111C124.366 0.523296 121.514 -0.658071 119.026 0.372431C116.538 1.40293 115.357 4.25508 116.388 6.74288C117.418 9.23068 120.27 10.4121 122.758 9.38155Z" fill="#E88D66"/>
<path d="M174.436 35.8229H67.3272C66.8671 35.8229 66.4946 35.4505 66.4946 34.9903V33.908C66.4946 33.4479 66.8671 33.0754 67.3272 33.0754H174.436C174.897 33.0754 175.269 33.4479 175.269 33.908V34.9903C175.269 35.4491 174.897 35.8229 174.436 35.8229Z" fill="#FAC897"/>
<path d="M177.353 26.957H64.411V34.4923H177.353V26.957Z" fill="#E8AC68"/>
<path d="M172.875 35.8229H68.8872V118.002H172.875V35.8229Z" fill="#FFEFE6"/>
<path d="M98.493 81.3051H80.5964V118.477H98.493V81.3051Z" fill="#EAC276"/>
<path d="M80.5964 81.3051L88.2142 80.0501H105.362L98.4943 81.3051H80.5964Z" fill="#FBD493"/>
<path d="M105.362 80.0501V118.477H98.4943V81.3051L105.362 80.0501Z" fill="#E2B669"/>
<path d="M126.879 61.7851H108.982V118.477H126.879V61.7851Z" fill="#EAC276"/>
<path d="M108.982 61.7852L116.599 59.8703H133.748L126.879 61.7852H108.982Z" fill="#FBD493"/>
<path d="M133.748 59.8702V118.477H126.879V61.7851L133.748 59.8702Z" fill="#E2B669"/>
<path d="M161.425 46.6078H143.528V118.477H161.425V46.6078Z" fill="#EAC276"/>
<path d="M143.528 46.6078L151.145 44.1801H168.292L161.425 46.6078H143.528Z" fill="#FBD493"/>
<path d="M168.292 44.1801V118.477H161.425V46.6078L168.292 44.1801Z" fill="#E2B669"/>
<path d="M122.52 130.397V126.424H119.242V130.397C117.492 131.058 116.246 132.75 116.246 134.733C116.246 137.293 118.322 139.367 120.88 139.367C123.439 139.367 125.515 137.291 125.515 134.733C125.516 132.75 124.27 131.058 122.52 130.397ZM120.882 137.959C119.101 137.959 117.655 136.514 117.655 134.733C117.655 132.952 119.101 131.506 120.882 131.506C122.663 131.506 124.108 132.95 124.108 134.733C124.107 136.514 122.663 137.959 120.882 137.959Z" fill="#F3CFB0"/>
<path d="M147.432 127.222H94.3312C93.3515 127.222 92.5581 126.428 92.5581 125.449V123.144C92.5581 122.164 93.3515 121.371 94.3312 121.371H147.432C148.412 121.371 149.206 122.164 149.206 123.144V125.449C149.206 126.428 148.412 127.222 147.432 127.222Z" fill="#CE8B4A"/>
<path d="M174.436 118.002H67.3272C66.8671 118.002 66.4946 118.375 66.4946 118.835V119.917C66.4946 120.377 66.8671 120.75 67.3272 120.75H174.436C174.897 120.75 175.269 120.377 175.269 119.917V118.835C175.269 118.375 174.897 118.002 174.436 118.002Z" fill="#FAC897"/>
<path d="M175.848 119.331H65.9157C65.0844 119.331 64.411 120.005 64.411 120.836V122.791C64.411 123.623 65.0844 124.296 65.9157 124.296H175.848C176.679 124.296 177.353 123.623 177.353 122.791V120.836C177.353 120.006 176.679 119.331 175.848 119.331Z" fill="#E8AC68"/>
<path d="M39.3017 147.928L37.7943 155.829L37.4138 157.825L22.1285 237.91H18.3392L33.6232 157.825L34.0037 155.829L35.6635 147.125L39.3017 147.928Z" fill="#BC8E57"/>
<path d="M91.8456 237.91H88.0563L72.771 157.825L72.3905 155.829L70.8831 147.928L74.5199 147.125L76.1811 155.829L76.5616 157.825L91.8456 237.91Z" fill="#BC8E57"/>
<path d="M56.9499 146.573H53.2362V237.91H56.9499V146.573Z" fill="#C79E67"/>
<path d="M26.3266 157.825C25.3011 157.825 24.4698 156.931 24.4698 155.829V91.8767C24.4698 90.7742 25.3011 89.8809 26.3266 89.8809H83.8568C84.8824 89.8809 85.7136 90.7742 85.7136 91.8767V155.829C85.7136 156.931 84.8824 157.825 83.8568 157.825H26.3266Z" fill="#FFCA84"/>
<path d="M83.8568 91.8767H26.3267V155.829H83.8568V91.8767Z" fill="#FFFDFF"/>
<path d="M83.4924 93.1237H26.7099C24.0393 93.1237 21.8748 90.7972 21.8748 87.9255C21.8748 85.0552 24.0393 82.7274 26.7099 82.7274H83.4924C86.163 82.7274 88.3275 85.0539 88.3275 87.9255C88.3275 90.7972 86.163 93.1237 83.4924 93.1237Z" fill="#BF8A3F"/>
<path d="M73.6144 139.503H31.5302C30.7529 139.503 30.1227 139.132 30.1227 138.673C30.1227 138.214 30.7529 137.843 31.5302 137.843H73.6144C74.3917 137.843 75.0219 138.214 75.0219 138.673C75.0219 139.132 74.3917 139.503 73.6144 139.503Z" fill="#A88978"/>
<path d="M44.6199 143.402H31.5302C30.7529 143.402 30.1227 143.031 30.1227 142.572C30.1227 142.114 30.7529 141.742 31.5302 141.742H44.6199C45.3972 141.742 46.0274 142.113 46.0274 142.572C46.0274 143.031 45.3972 143.402 44.6199 143.402Z" fill="#A88978"/>
<path d="M79.9488 143.402H48.702C47.9248 143.402 47.2946 143.031 47.2946 142.572C47.2946 142.114 47.9248 141.742 48.702 141.742H79.9488C80.7261 141.742 81.3562 142.113 81.3562 142.572C81.3562 143.031 80.7261 143.402 79.9488 143.402Z" fill="#A88978"/>
<path d="M49.5468 147.133H31.5302C30.7529 147.133 30.1227 146.762 30.1227 146.303C30.1227 145.846 30.7529 145.473 31.5302 145.473H49.5468C50.3241 145.473 50.9543 145.844 50.9543 146.303C50.9543 146.762 50.3241 147.133 49.5468 147.133Z" fill="#A88978"/>
<path d="M79.2457 147.133H56.1618C55.3846 147.133 54.7543 146.762 54.7543 146.303C54.7543 145.846 55.3846 145.473 56.1618 145.473H79.2457C80.023 145.473 80.6532 145.844 80.6532 146.303C80.6532 146.762 80.023 147.133 79.2457 147.133Z" fill="#A88978"/>
<path d="M28.846 131.058L38.4569 116.028L41.6686 121.051L50.9246 106.578L56.6179 115.48L67.1572 98.9992L70.4728 101.45L56.6179 123.114L50.9246 114.212L41.6686 128.685L38.4569 123.662L32.1617 133.508L28.846 131.058Z" fill="#D14362"/>
<path d="M61.6231 100.399L72.2582 94.9481L71.3338 107.575L61.6231 100.399Z" fill="#D14362"/>
<path d="M167.256 241.266H111.302C108.236 241.266 105.75 238.78 105.75 235.714V154.399C105.75 151.333 108.236 148.847 111.302 148.847H167.256C170.322 148.847 172.808 151.333 172.808 154.399V235.714C172.809 238.78 170.323 241.266 167.256 241.266Z" fill="#AA714B"/>
<path d="M169.017 154.25H109.506V234.747H169.017V154.25Z" fill="#EDCFBC"/>
<path d="M152.537 155.591H126.061C124.461 155.591 123.162 154.293 123.162 152.693V149.322C123.162 147.721 124.461 146.423 126.061 146.423H152.537C154.138 146.423 155.436 147.721 155.436 149.322V152.693C155.436 154.293 154.138 155.591 152.537 155.591Z" fill="#D14362"/>
<path d="M120.032 173.554C116.62 173.554 113.846 170.778 113.846 167.368C113.846 163.957 116.622 161.182 120.032 161.182C123.442 161.182 126.218 163.957 126.218 167.368C126.218 170.778 123.443 173.554 120.032 173.554ZM120.032 162.672C117.442 162.672 115.336 164.779 115.336 167.368C115.336 169.958 117.442 172.064 120.032 172.064C122.621 172.064 124.728 169.958 124.728 167.368C124.728 164.779 122.621 162.672 120.032 162.672Z" fill="#A88978"/>
<path d="M120.032 193.603C116.62 193.603 113.846 190.829 113.846 187.417C113.846 184.006 116.622 181.231 120.032 181.231C123.442 181.231 126.218 184.007 126.218 187.417C126.218 190.829 123.443 193.603 120.032 193.603ZM120.032 182.721C117.442 182.721 115.336 184.827 115.336 187.417C115.336 190.007 117.442 192.113 120.032 192.113C122.621 192.113 124.728 190.007 124.728 187.417C124.728 184.827 122.621 182.721 120.032 182.721Z" fill="#A88978"/>
<path d="M123.874 211.316C125.999 209.191 125.999 205.746 123.874 203.621C121.75 201.496 118.305 201.496 116.18 203.621C114.055 205.746 114.055 209.191 116.18 211.316C118.305 213.441 121.75 213.441 123.874 211.316Z" stroke="#A88978" stroke-width="20" stroke-miterlimit="10"/>
<path d="M154.019 162.672H131.733C131.321 162.672 130.988 162.339 130.988 161.927C130.988 161.516 131.321 161.182 131.733 161.182H154.019C154.431 161.182 154.764 161.516 154.764 161.927C154.765 162.339 154.431 162.672 154.019 162.672Z" fill="#A88978"/>
<path d="M138.665 166.175H131.733C131.321 166.175 130.988 165.842 130.988 165.43C130.988 165.019 131.321 164.685 131.733 164.685H138.665C139.077 164.685 139.41 165.019 139.41 165.43C139.41 165.842 139.077 166.175 138.665 166.175Z" fill="#A88978"/>
<path d="M157.374 166.175H140.827C140.415 166.175 140.082 165.842 140.082 165.43C140.082 165.019 140.415 164.685 140.827 164.685H157.374C157.786 164.685 158.119 165.019 158.119 165.43C158.119 165.842 157.786 166.175 157.374 166.175Z" fill="#A88978"/>
<path d="M141.274 169.529H131.733C131.321 169.529 130.988 169.195 130.988 168.784C130.988 168.372 131.321 168.039 131.733 168.039H141.274C141.685 168.039 142.018 168.372 142.018 168.784C142.02 169.195 141.685 169.529 141.274 169.529Z" fill="#A88978"/>
<path d="M157 169.529H144.777C144.365 169.529 144.032 169.195 144.032 168.784C144.032 168.372 144.365 168.039 144.777 168.039H157C157.412 168.039 157.745 168.372 157.745 168.784C157.746 169.195 157.413 169.529 157 169.529Z" fill="#A88978"/>
<path d="M154.019 184.212H131.733C131.321 184.212 130.988 183.879 130.988 183.467C130.988 183.056 131.321 182.722 131.733 182.722H154.019C154.431 182.722 154.764 183.056 154.764 183.467C154.764 183.879 154.431 184.212 154.019 184.212Z" fill="#A88978"/>
<path d="M138.665 187.715H131.733C131.321 187.715 130.988 187.382 130.988 186.97C130.988 186.559 131.321 186.226 131.733 186.226H138.665C139.077 186.226 139.41 186.559 139.41 186.97C139.411 187.382 139.077 187.715 138.665 187.715Z" fill="#A88978"/>
<path d="M157.374 187.715H140.827C140.415 187.715 140.082 187.382 140.082 186.97C140.082 186.559 140.415 186.226 140.827 186.226H157.374C157.786 186.226 158.119 186.559 158.119 186.97C158.119 187.382 157.786 187.715 157.374 187.715Z" fill="#A88978"/>
<path d="M141.274 191.07H131.733C131.321 191.07 130.988 190.737 130.988 190.325C130.988 189.914 131.321 189.58 131.733 189.58H141.274C141.685 189.58 142.018 189.914 142.018 190.325C142.02 190.735 141.685 191.07 141.274 191.07Z" fill="#A88978"/>
<path d="M157 191.07H144.777C144.365 191.07 144.032 190.737 144.032 190.325C144.032 189.914 144.365 189.58 144.777 189.58H157C157.412 189.58 157.745 189.914 157.745 190.325C157.746 190.735 157.413 191.07 157 191.07Z" fill="#A88978"/>
<path d="M154.019 203.516H131.733C131.321 203.516 130.988 203.183 130.988 202.771C130.988 202.36 131.321 202.026 131.733 202.026H154.019C154.431 202.026 154.764 202.36 154.764 202.771C154.764 203.183 154.431 203.516 154.019 203.516Z" fill="#A88978"/>
<path d="M138.665 207.019H131.733C131.321 207.019 130.988 206.686 130.988 206.274C130.988 205.863 131.321 205.53 131.733 205.53H138.665C139.077 205.53 139.41 205.863 139.41 206.274C139.411 206.686 139.077 207.019 138.665 207.019Z" fill="#A88978"/>
<path d="M157.374 207.019H140.827C140.415 207.019 140.082 206.686 140.082 206.274C140.082 205.863 140.415 205.53 140.827 205.53H157.374C157.786 205.53 158.119 205.863 158.119 206.274C158.119 206.686 157.786 207.019 157.374 207.019Z" fill="#A88978"/>
<path d="M141.274 210.374H131.733C131.321 210.374 130.988 210.041 130.988 209.629C130.988 209.218 131.321 208.884 131.733 208.884H141.274C141.685 208.884 142.018 209.218 142.018 209.629C142.018 210.041 141.685 210.374 141.274 210.374Z" fill="#A88978"/>
<path d="M157 210.374H144.777C144.365 210.374 144.032 210.041 144.032 209.629C144.032 209.218 144.365 208.884 144.777 208.884H157C157.412 208.884 157.745 209.218 157.745 209.629C157.745 210.041 157.413 210.374 157 210.374Z" fill="#A88978"/>
<path d="M119.881 171.28C119.844 171.28 119.809 171.279 119.773 171.275C119.404 171.238 119.08 171.016 118.913 170.685L115.638 164.188C115.369 163.653 115.584 163.003 116.117 162.733C116.651 162.464 117.302 162.679 117.572 163.212L120.08 168.189L126.258 160.323C126.628 159.852 127.308 159.771 127.779 160.14C128.25 160.51 128.331 161.19 127.961 161.661L120.731 170.867C120.526 171.129 120.211 171.28 119.881 171.28Z" fill="#D14362"/>
<path d="M167.194 77.5145C165.494 75.9639 164.846 73.5322 165.928 71.2773C166.975 69.0952 169.584 67.7849 171.96 68.2477C173.669 68.581 175.173 69.7092 176.907 69.8671C178.394 70.002 179.883 69.4042 181.365 69.585C182.938 69.778 184.298 70.8441 185.212 72.1382C186.126 73.4337 186.66 74.9518 187.183 76.447C187.98 78.7236 188.76 81.3118 187.654 83.4548C187.274 84.1929 186.692 84.8137 186.329 85.5613C185.76 86.7326 186.128 88.1442 185.617 89.3816C181.908 87.2319 178.421 84.0701 175.053 81.4009C172.974 79.7532 170.093 79.5427 167.874 78.0448C167.631 77.8842 167.404 77.7061 167.194 77.5145Z" fill="#2C2B27"/>
<path d="M215.019 216.526L221.373 221.823L217.137 227.118L209.723 220.764L215.019 216.526Z" fill="#FFB1A4"/>
<path d="M179.539 232.413L179.01 235.061L186.422 235.59L186.953 232.413H179.539Z" fill="#FFB1A4"/>
<path d="M179.01 189.52C179.01 189.52 177.95 231.883 177.95 232.942C177.95 232.942 188.012 234.002 188.541 234.002C189.07 234.002 190.66 201.7 190.66 201.7L179.01 189.52Z" fill="#36384C"/>
<path d="M176.362 141.861C176.362 141.861 174.244 188.991 176.891 193.226C179.539 197.462 210.252 224.469 210.252 224.469L218.195 216.526C218.195 216.526 193.572 197.198 192.512 189.784C191.453 182.37 196.219 164.366 196.748 161.718C197.277 159.07 198.337 145.832 197.277 141.595C196.219 137.359 176.362 141.861 176.362 141.861Z" fill="#424357"/>
<path d="M189.6 93.6715C189.6 93.1425 184.834 86.2576 183.775 85.1983C183.775 85.1983 185.363 81.4913 183.775 80.9623C182.186 80.4333 180.598 80.9623 180.598 82.5506C180.598 82.5506 180.069 77.2554 178.479 76.725C176.891 76.196 170.537 76.725 169.477 77.7843C168.418 78.8437 171.596 83.0796 170.006 85.1983C168.418 87.3169 172.125 86.7866 172.125 86.7866C172.125 86.7866 170.537 92.0819 173.713 92.0819C176.89 92.0819 178.479 91.5529 178.479 95.2598C178.479 98.9668 185.363 99.4958 185.363 99.4958L188.011 98.4365L189.6 93.6715Z" fill="#EE9C7F"/>
<path d="M177.598 95.0358C176.157 100.817 170.889 123.988 173.184 145.566C173.184 145.566 183.246 152.98 199.132 144.507C199.132 144.507 200.72 111.675 199.132 105.85C197.794 100.946 192.704 94.9184 190.496 92.8173C190.055 92.3976 189.353 92.4273 188.957 92.8902C187.327 94.7889 182.873 99.0586 178.801 94.7174C178.419 94.3085 177.733 94.4933 177.598 95.0358Z" fill="#D14362"/>
<path d="M181.657 113.264C181.657 113.264 178.481 121.738 176.362 121.738C174.244 121.738 164.712 120.678 163.124 119.619C162.074 118.919 160.787 118.534 159.601 118.136C158.964 117.923 158.323 117.719 157.686 117.508C157.166 117.336 156.436 116.933 155.885 117.024C153.961 117.34 157.356 119.913 157.829 120.149C158.888 120.678 159.947 121.209 158.888 121.738C157.408 122.478 155.738 122.574 154.112 122.553C153.37 122.542 152.629 122.545 151.887 122.524C151.226 122.505 150.575 122.105 149.967 121.846C149.84 121.792 149.704 121.738 149.57 121.766C148.976 121.893 149.678 122.812 149.886 122.978C150.337 123.338 150.708 123.774 151.18 124.1C152.098 124.735 153.058 125.307 154.054 125.81C154.886 126.231 155.792 126.407 156.702 126.598C158.131 126.898 160.215 127.388 161.537 126.505C163.125 125.446 167.892 125.446 171.599 126.505C175.306 127.565 183.779 129.682 184.837 129.153C185.895 128.624 191.191 118.032 191.191 118.032L181.657 113.264Z" fill="#DD856B"/>
<path d="M180.598 113.795L191.189 120.149C191.189 120.149 199.132 110.088 194.365 102.145C189.6 94.2005 183.775 104.262 180.598 113.795Z" fill="#B32C43"/>
<path d="M186.953 235.061H177.95C177.95 235.061 177.95 237.18 173.715 238.768C169.479 240.356 165.241 241.416 165.241 243.534C165.241 245.653 185.893 245.123 186.953 244.594C188.012 244.063 186.953 235.061 186.953 235.061Z" fill="#424357"/>
<path d="M221.514 219.65L214.901 225.759C214.901 225.759 216.339 227.315 214.305 231.357C212.271 235.398 209.879 239.051 211.316 240.607C212.753 242.163 227.563 227.761 227.982 226.653C228.4 225.545 221.514 219.65 221.514 219.65Z" fill="#424357"/>
</svg>
