<svg width="41" height="104" viewBox="0 0 41 104" fill="none" xmlns="http://www.w3.org/2000/svg">
<path d="M0.0990859 103.998H6.75182C8.30327 99.1206 12.9608 70.5145 12.739 66.0804C12.5171 61.6447 10.9656 58.0981 12.0734 54.7717C13.1827 51.4454 19.1698 31.7106 19.1698 31.7106C19.1698 31.7106 26.0444 57.4325 26.7084 60.537C27.374 63.6415 33.3612 104 33.3612 104H40.2358C40.2358 104 39.9029 102.338 39.6811 83.2669C39.4592 64.1962 36.1329 55.1045 36.1329 55.1045C36.1329 55.1045 36.1329 55.1045 35.911 52.8875C35.6891 50.6704 34.4689 37.0322 35.1345 22.3971C35.8001 7.76207 29.8129 0 29.8129 0L5.86436 3.10451C5.86436 3.10451 4.75503 18.4052 4.53316 21.2878C4.3113 24.1704 0.319342 53.4405 0.0974766 56.545C-0.122781 59.6495 0.0990859 103.998 0.0990859 103.998Z" fill="#251F33"/>
</svg>
