<svg width="184" height="184" viewBox="0 0 184 184" fill="none" xmlns="http://www.w3.org/2000/svg">
<path d="M18.52 184C8.30895 184 0 175.693 0 165.48V18.52C0 8.30893 8.30734 0 18.52 0H165.478C175.689 0 183.998 8.30732 183.998 18.52V165.478C183.998 175.689 175.691 183.998 165.478 183.998H18.52V184Z" fill="#F1B476"/>
<path d="M18.52 180.959C9.98457 180.959 3.04116 174.015 3.04116 165.48V18.52C3.04116 9.98454 9.98457 3.04115 18.52 3.04115H165.478C174.014 3.04115 180.957 9.98454 180.957 18.52V165.478C180.957 174.014 174.014 180.957 165.478 180.957H18.52V180.959Z" fill="#FFC673"/>
<path d="M18.52 168.797C16.6902 168.797 15.2026 167.308 15.2026 165.478V18.52C15.2026 16.6902 16.6918 15.2025 18.52 15.2025H165.478C167.308 15.2025 168.797 16.6918 168.797 18.52V165.478C168.797 167.308 167.308 168.797 165.478 168.797H18.52Z" fill="#AB8749"/>
<path d="M18.52 167.581C17.3601 167.581 16.4171 166.638 16.4171 165.478V18.52C16.4171 17.3601 17.3601 16.4187 18.52 16.4187H165.478C166.637 16.4187 167.581 17.3617 167.581 18.52V165.478C167.581 166.638 166.638 167.581 165.478 167.581H18.52Z" fill="#FFC673"/>
<path d="M165.48 166.365H18.52C18.03 166.365 17.6332 165.968 17.6332 165.478V18.52C17.6332 18.03 18.03 17.6332 18.52 17.6332H165.478C165.968 17.6332 166.365 18.03 166.365 18.52V165.478C166.365 165.968 165.968 166.365 165.48 166.365Z" fill="#BD7B5B"/>
<path d="M91.9992 120.761C84.3168 120.761 77.0939 117.769 71.6622 112.336C66.2306 106.905 63.2376 99.6816 63.2376 91.9992C63.2376 84.3168 66.229 77.0938 71.6622 71.6622C77.0939 66.2305 84.3168 63.2376 91.9992 63.2376C99.6816 63.2376 106.905 66.2289 112.336 71.6622C117.768 77.0938 120.761 84.3168 120.761 91.9992C120.761 99.6816 117.769 106.905 112.336 112.336C106.905 117.769 99.6816 120.761 91.9992 120.761Z" fill="#4F2F2F"/>
<path d="M111.043 111.047C121.563 100.528 121.563 83.4729 111.043 72.9536C100.524 62.4343 83.4688 62.4343 72.9495 72.9536C62.4302 83.4729 62.4302 100.528 72.9495 111.047C83.4688 121.567 100.524 121.567 111.043 111.047Z" fill="#5F492E"/>
<path d="M92.0522 117.173H92.0008C91.514 117.173 91.0224 117.159 90.5389 117.132C90.3718 117.122 90.2433 116.977 90.2529 116.81C90.2625 116.643 90.4055 116.515 90.5742 116.524C91.0465 116.552 91.5269 116.566 92.0024 116.566H92.0538C92.2225 116.566 92.3574 116.703 92.3574 116.87C92.3574 117.037 92.2193 117.173 92.0522 117.173ZM93.4965 117.128C93.3374 117.128 93.2025 117.005 93.1928 116.842C93.1832 116.675 93.3101 116.531 93.4788 116.521C93.9527 116.492 94.4315 116.45 94.9006 116.394C95.0677 116.373 95.2187 116.494 95.2379 116.661C95.2572 116.828 95.1383 116.979 94.9713 116.998C94.4893 117.055 93.9993 117.099 93.5141 117.128C93.5093 117.128 93.5029 117.128 93.4965 117.128ZM89.1139 117.008C89.1026 117.008 89.0898 117.008 89.0785 117.006C88.595 116.95 88.1082 116.879 87.6295 116.796C87.464 116.767 87.3531 116.61 87.382 116.444C87.411 116.279 87.57 116.168 87.7339 116.197C88.1998 116.279 88.6753 116.348 89.1476 116.402C89.3147 116.422 89.4336 116.573 89.4143 116.74C89.3982 116.894 89.2665 117.008 89.1139 117.008ZM96.3673 116.789C96.2227 116.789 96.0942 116.687 96.0685 116.539C96.0396 116.373 96.1488 116.216 96.3143 116.187C96.7802 116.105 97.2493 116.007 97.712 115.896C97.8759 115.858 98.0397 115.957 98.0783 116.121C98.1168 116.285 98.0172 116.449 97.8534 116.487C97.3794 116.601 96.8975 116.701 96.4203 116.786C96.4027 116.788 96.385 116.789 96.3673 116.789ZM86.2671 116.507C86.2446 116.507 86.2205 116.503 86.1964 116.499C85.7241 116.386 85.2486 116.259 84.7827 116.12C84.622 116.071 84.5305 115.903 84.5787 115.74C84.6269 115.58 84.7971 115.488 84.9578 115.536C85.4124 115.673 85.8767 115.797 86.3378 115.906C86.5017 115.944 86.6029 116.108 86.5643 116.272C86.5306 116.414 86.4053 116.507 86.2671 116.507ZM99.1788 116.118C99.0486 116.118 98.9281 116.033 98.888 115.901C98.8398 115.74 98.9297 115.57 99.0904 115.522C99.5434 115.385 99.9997 115.233 100.445 115.069C100.602 115.011 100.777 115.091 100.835 115.249C100.893 115.406 100.813 115.581 100.655 115.639C100.199 115.806 99.7314 115.964 99.2671 116.103C99.2382 116.113 99.2077 116.118 99.1788 116.118ZM83.4959 115.676C83.4605 115.676 83.4268 115.67 83.3914 115.657C82.9336 115.49 82.4757 115.307 82.0291 115.114C81.8749 115.048 81.8042 114.868 81.8701 114.714C81.9375 114.56 82.1159 114.489 82.2701 114.556C82.7055 114.744 83.1521 114.923 83.5987 115.087C83.7561 115.144 83.8381 115.319 83.7802 115.477C83.7369 115.601 83.6196 115.676 83.4959 115.676ZM101.891 115.122C101.773 115.122 101.661 115.053 101.611 114.939C101.544 114.784 101.614 114.606 101.768 114.539C102.202 114.349 102.638 114.145 103.059 113.931C103.208 113.856 103.391 113.915 103.467 114.065C103.542 114.214 103.483 114.397 103.333 114.473C102.901 114.691 102.456 114.902 102.011 115.095C101.971 115.114 101.931 115.122 101.891 115.122ZM80.8387 114.526C80.7921 114.526 80.7455 114.515 80.7021 114.494C80.27 114.275 79.8362 114.041 79.4137 113.796C79.2691 113.713 79.2193 113.527 79.3028 113.38C79.3864 113.236 79.5727 113.186 79.7189 113.27C80.1318 113.507 80.5543 113.737 80.9768 113.951C81.1262 114.026 81.1873 114.209 81.1118 114.359C81.0572 114.465 80.9495 114.526 80.8387 114.526ZM104.466 113.819C104.361 113.819 104.259 113.764 104.202 113.668C104.117 113.523 104.167 113.337 104.312 113.252C104.721 113.014 105.129 112.76 105.525 112.498C105.664 112.405 105.852 112.444 105.945 112.584C106.039 112.723 106 112.913 105.86 113.004C105.455 113.273 105.038 113.531 104.618 113.776C104.57 113.805 104.517 113.819 104.466 113.819ZM78.3357 113.075C78.2779 113.075 78.22 113.059 78.1686 113.025C77.7638 112.759 77.3606 112.474 76.9702 112.184C76.8352 112.082 76.8079 111.893 76.9091 111.758C77.0103 111.623 77.1999 111.596 77.3348 111.695C77.7156 111.98 78.1092 112.256 78.5044 112.516C78.6442 112.609 78.6827 112.797 78.5911 112.937C78.5317 113.027 78.4337 113.075 78.3357 113.075ZM106.874 112.224C106.781 112.224 106.689 112.182 106.63 112.102C106.529 111.967 106.556 111.777 106.691 111.676C107.072 111.392 107.448 111.093 107.809 110.787C107.938 110.68 108.129 110.696 108.238 110.824C108.346 110.953 108.329 111.144 108.201 111.253C107.83 111.567 107.444 111.872 107.056 112.164C107.001 112.204 106.938 112.224 106.874 112.224ZM76.0175 111.345C75.9484 111.345 75.8793 111.321 75.8215 111.274C75.4488 110.961 75.0809 110.633 74.7291 110.301C74.607 110.185 74.6022 109.992 74.7162 109.87C74.8319 109.748 75.023 109.743 75.1468 109.857C75.4905 110.182 75.8504 110.503 76.2135 110.808C76.342 110.916 76.3581 111.109 76.2504 111.237C76.191 111.308 76.1042 111.345 76.0175 111.345ZM109.085 110.362C109.004 110.362 108.924 110.33 108.864 110.267C108.749 110.145 108.754 109.952 108.876 109.836C109.221 109.51 109.56 109.17 109.885 108.824C110 108.702 110.191 108.696 110.314 108.811C110.436 108.927 110.442 109.118 110.326 109.24C109.994 109.594 109.647 109.942 109.293 110.277C109.234 110.333 109.158 110.362 109.085 110.362ZM73.9162 109.361C73.8358 109.361 73.7555 109.329 73.6945 109.266C73.3619 108.913 73.0342 108.546 72.7209 108.174C72.6133 108.045 72.6293 107.854 72.7579 107.745C72.8864 107.637 73.0776 107.653 73.1868 107.782C73.492 108.145 73.8117 108.505 74.1363 108.848C74.2519 108.97 74.2455 109.163 74.1234 109.279C74.0656 109.332 73.9917 109.361 73.9162 109.361ZM111.065 108.256C110.996 108.256 110.927 108.233 110.871 108.185C110.742 108.077 110.725 107.884 110.832 107.756C111.138 107.393 111.435 107.015 111.718 106.635C111.817 106.5 112.008 106.472 112.143 106.572C112.278 106.672 112.306 106.863 112.206 106.998C111.915 107.388 111.61 107.774 111.298 108.146C111.239 108.219 111.152 108.256 111.065 108.256ZM72.0574 107.147C71.9642 107.147 71.8727 107.105 71.8132 107.025C71.5224 106.636 71.2397 106.233 70.973 105.828C70.8798 105.688 70.9184 105.499 71.0598 105.407C71.1995 105.316 71.3891 105.354 71.4807 105.494C71.7425 105.889 72.0172 106.283 72.3016 106.662C72.4028 106.797 72.3739 106.986 72.2406 107.088C72.1843 107.128 72.1201 107.147 72.0574 107.147ZM112.792 105.936C112.735 105.936 112.677 105.92 112.625 105.886C112.486 105.794 112.445 105.605 112.539 105.465C112.799 105.068 113.053 104.659 113.289 104.249C113.372 104.103 113.559 104.055 113.705 104.138C113.851 104.222 113.901 104.408 113.816 104.554C113.573 104.975 113.315 105.394 113.046 105.801C112.988 105.888 112.89 105.936 112.792 105.936ZM70.4669 104.736C70.3625 104.736 70.2597 104.681 70.2035 104.585C69.9593 104.164 69.7247 103.732 69.5079 103.299C69.4324 103.15 69.4918 102.967 69.6428 102.891C69.7922 102.816 69.9754 102.875 70.0509 103.026C70.2629 103.449 70.4927 103.87 70.7304 104.281C70.814 104.426 70.7658 104.612 70.6196 104.697C70.5714 104.723 70.5184 104.736 70.4669 104.736ZM114.24 103.43C114.193 103.43 114.147 103.418 114.103 103.397C113.954 103.322 113.893 103.139 113.968 102.989C114.18 102.565 114.384 102.13 114.572 101.693C114.638 101.539 114.818 101.468 114.972 101.534C115.127 101.6 115.197 101.78 115.132 101.934C114.939 102.381 114.73 102.829 114.511 103.263C114.458 103.369 114.351 103.43 114.24 103.43ZM69.1657 102.159C69.0484 102.159 68.9359 102.09 68.8861 101.976C68.6934 101.531 68.5118 101.074 68.3447 100.618C68.2869 100.461 68.3688 100.286 68.5263 100.228C68.6837 100.17 68.8588 100.252 68.9167 100.409C69.0789 100.853 69.2572 101.299 69.4452 101.733C69.5127 101.887 69.4404 102.066 69.2878 102.133C69.2476 102.151 69.2058 102.159 69.1657 102.159ZM115.385 100.771C115.352 100.771 115.316 100.764 115.281 100.753C115.123 100.695 115.042 100.522 115.099 100.364C115.262 99.9177 115.413 99.4599 115.548 99.0052C115.596 98.8446 115.765 98.753 115.925 98.8012C116.086 98.8494 116.177 99.0181 116.129 99.1787C115.991 99.6446 115.835 100.112 115.67 100.572C115.626 100.695 115.509 100.771 115.385 100.771ZM68.1745 99.4454C68.0443 99.4454 67.9222 99.3603 67.8837 99.2285C67.7439 98.7626 67.6154 98.2871 67.5045 97.8148C67.466 97.6509 67.5672 97.4871 67.7294 97.4485C67.8933 97.4099 68.0572 97.5112 68.0957 97.6734C68.205 98.1345 68.3303 98.5988 68.4668 99.0518C68.515 99.2125 68.4235 99.3828 68.2628 99.4309C68.2339 99.4422 68.2034 99.4454 68.1745 99.4454ZM116.213 97.9979C116.19 97.9979 116.166 97.9947 116.144 97.9899C115.98 97.9513 115.879 97.7875 115.917 97.6252C116.026 97.1625 116.121 96.6918 116.203 96.2259C116.232 96.0605 116.389 95.9496 116.555 95.9785C116.72 96.0074 116.831 96.1649 116.802 96.3304C116.719 96.8075 116.621 97.2911 116.51 97.7634C116.475 97.9031 116.349 97.9979 116.213 97.9979ZM67.5077 96.634C67.3632 96.634 67.2346 96.5296 67.2089 96.3834C67.1254 95.9046 67.0531 95.4179 66.9969 94.9359C66.9776 94.7688 67.0965 94.6178 67.2635 94.5985C67.4306 94.5793 67.5816 94.6981 67.6009 94.8652C67.6555 95.3359 67.7262 95.8114 67.8082 96.2789C67.8371 96.4444 67.7262 96.6019 67.5608 96.6308C67.5431 96.6324 67.5254 96.634 67.5077 96.634ZM116.708 95.1512C116.696 95.1512 116.685 95.1512 116.672 95.1496C116.505 95.1303 116.386 94.9793 116.406 94.8122C116.459 94.3431 116.5 93.8643 116.526 93.3888C116.536 93.2217 116.675 93.09 116.847 93.1028C117.014 93.1125 117.143 93.2555 117.133 93.4242C117.106 93.9109 117.064 94.4009 117.01 94.8829C116.992 95.0371 116.86 95.1512 116.708 95.1512ZM67.172 93.7631C67.0129 93.7631 66.878 93.6378 66.8683 93.4772C66.841 92.9936 66.8266 92.502 66.825 92.0136C66.825 91.845 66.9615 91.71 67.1286 91.71C67.2957 91.71 67.4322 91.8466 67.4322 92.0136C67.4322 92.4892 67.4467 92.9695 67.474 93.4418C67.4837 93.6089 67.3551 93.7535 67.188 93.7631C67.1848 93.7631 67.1784 93.7631 67.172 93.7631ZM116.87 92.2659C116.703 92.2659 116.566 92.1309 116.566 91.9622C116.565 91.4867 116.55 91.0063 116.523 90.534C116.513 90.3669 116.64 90.2224 116.809 90.2127C116.977 90.2031 117.12 90.33 117.13 90.4987C117.159 90.9822 117.173 91.4754 117.175 91.9622C117.173 92.1277 117.038 92.2642 116.87 92.2659ZM67.172 90.873C67.1656 90.873 67.1607 90.873 67.1543 90.873C66.9872 90.8634 66.8587 90.7204 66.8683 90.5517C66.8957 90.0665 66.939 89.5749 66.9936 89.093C67.0129 88.9259 67.164 88.8054 67.331 88.8263C67.4981 88.8456 67.617 88.9966 67.5977 89.1637C67.5431 89.6344 67.5029 90.1131 67.4756 90.587C67.466 90.7477 67.331 90.873 67.172 90.873ZM116.698 89.3789C116.545 89.3789 116.415 89.2649 116.396 89.1106C116.34 88.6399 116.271 88.1644 116.187 87.6985C116.158 87.533 116.267 87.3756 116.433 87.3467C116.598 87.3178 116.756 87.427 116.785 87.5925C116.87 88.0712 116.94 88.558 116.998 89.04C117.018 89.207 116.899 89.358 116.732 89.3773C116.722 89.3789 116.709 89.3789 116.698 89.3789ZM67.5029 88.0005C67.4852 88.0005 67.4676 87.9989 67.4499 87.9957C67.2844 87.9668 67.1736 87.8094 67.2025 87.6439C67.286 87.1651 67.3856 86.6832 67.4965 86.2109C67.535 86.047 67.6989 85.9458 67.8628 85.9844C68.0266 86.0229 68.1279 86.1868 68.0893 86.3506C67.9801 86.8117 67.8837 87.2824 67.8017 87.7499C67.776 87.8977 67.6475 88.0005 67.5029 88.0005ZM116.193 86.5338C116.055 86.5338 115.932 86.439 115.898 86.3008C115.789 85.8398 115.663 85.3755 115.527 84.9224C115.479 84.7618 115.57 84.5915 115.731 84.5433C115.891 84.4951 116.062 84.5867 116.11 84.7473C116.25 85.2132 116.378 85.6887 116.491 86.1611C116.529 86.3249 116.428 86.4888 116.266 86.5274C116.24 86.5306 116.216 86.5338 116.193 86.5338ZM68.168 85.1875C68.1391 85.1875 68.1102 85.1827 68.0813 85.1747C67.9206 85.1265 67.829 84.9578 67.8772 84.7955C68.017 84.3296 68.1712 83.8605 68.3383 83.4027C68.3961 83.2452 68.5713 83.1633 68.7287 83.2211C68.8861 83.279 68.9681 83.4525 68.9102 83.6115C68.748 84.0581 68.597 84.5144 68.4604 84.969C68.4186 85.1024 68.2982 85.1875 68.168 85.1875ZM115.36 83.7657C115.236 83.7657 115.119 83.6886 115.074 83.5665C114.911 83.1215 114.733 82.6765 114.544 82.2428C114.476 82.0885 114.547 81.9102 114.701 81.8427C114.855 81.7769 115.034 81.8459 115.101 82.0002C115.294 82.4452 115.477 82.9014 115.644 83.3561C115.702 83.5135 115.622 83.6886 115.462 83.7465C115.429 83.7593 115.393 83.7657 115.36 83.7657ZM69.1593 82.4677C69.1191 82.4677 69.0773 82.4596 69.0388 82.442C68.8845 82.3761 68.8139 82.1962 68.8797 82.0419C69.0725 81.5953 69.2813 81.1487 69.4998 80.7149C69.5753 80.5655 69.7585 80.5045 69.9079 80.58C70.0573 80.6555 70.1183 80.8387 70.0428 80.9881C69.8292 81.4122 69.6251 81.8475 69.4372 82.2829C69.3874 82.3986 69.2765 82.4677 69.1593 82.4677ZM114.209 81.1198C114.099 81.1198 113.991 81.0587 113.938 80.9527C113.724 80.5302 113.494 80.1077 113.257 79.6996C113.172 79.555 113.221 79.3687 113.368 79.2835C113.512 79.1984 113.698 79.2482 113.784 79.3944C114.028 79.8137 114.262 80.2458 114.481 80.6796C114.556 80.829 114.497 81.0122 114.346 81.0877C114.303 81.1086 114.256 81.1198 114.209 81.1198ZM70.4605 79.8828C70.4091 79.8828 70.3561 79.8699 70.3079 79.841C70.1633 79.7575 70.1135 79.5711 70.1971 79.4249C70.4413 79.004 70.6999 78.5847 70.9682 78.1799C71.0614 78.0401 71.2493 78.0015 71.3891 78.0931C71.5289 78.1863 71.5674 78.3742 71.4758 78.514C71.2156 78.9092 70.9618 79.3189 70.724 79.7301C70.6678 79.8281 70.565 79.8828 70.4605 79.8828ZM112.759 78.6217C112.661 78.6217 112.563 78.5734 112.505 78.4851C112.245 78.0899 111.968 77.6979 111.684 77.3171C111.583 77.1822 111.612 76.9926 111.745 76.8914C111.88 76.7902 112.069 76.8191 112.171 76.9525C112.461 77.3429 112.746 77.7445 113.013 78.1493C113.106 78.2891 113.067 78.4787 112.927 78.5702C112.874 78.6056 112.817 78.6217 112.759 78.6217ZM72.0526 77.4666C71.9899 77.4666 71.9257 77.4473 71.8711 77.4055C71.7361 77.3059 71.7088 77.1147 71.8084 76.9798C72.0992 76.591 72.4044 76.2038 72.7177 75.8311C72.8253 75.7026 73.0181 75.6865 73.1466 75.7942C73.2752 75.9018 73.2912 76.0946 73.1836 76.2231C72.8783 76.5862 72.5795 76.9637 72.2968 77.3429C72.2373 77.4248 72.1458 77.4666 72.0526 77.4666ZM111.028 76.3083C110.942 76.3083 110.857 76.2713 110.796 76.2006C110.49 75.8375 110.169 75.4793 109.844 75.1355C109.729 75.0134 109.735 74.8206 109.856 74.705C109.978 74.5893 110.171 74.5941 110.286 74.7162C110.619 75.068 110.947 75.4359 111.26 75.8086C111.367 75.9372 111.351 76.1283 111.223 76.2376C111.167 76.2842 111.098 76.3083 111.028 76.3083ZM73.913 75.2528C73.8374 75.2528 73.7635 75.2255 73.7041 75.1692C73.582 75.0536 73.5756 74.8608 73.6913 74.7387C74.0254 74.3853 74.3724 74.0366 74.7258 73.7041C74.8479 73.5884 75.0407 73.5948 75.1564 73.7169C75.2721 73.839 75.2656 74.0318 75.1436 74.1475C74.7998 74.472 74.4592 74.8126 74.133 75.158C74.0736 75.2206 73.9933 75.2528 73.913 75.2528ZM109.043 74.2085C108.969 74.2085 108.893 74.1812 108.834 74.125C108.489 73.8005 108.13 73.4808 107.766 73.1755C107.637 73.0679 107.619 72.8751 107.729 72.7466C107.836 72.6181 108.029 72.602 108.158 72.7096C108.53 73.0213 108.898 73.349 109.252 73.6832C109.374 73.7989 109.38 73.99 109.264 74.1121C109.203 74.1764 109.123 74.2085 109.043 74.2085ZM76.0143 73.2671C75.9275 73.2671 75.8424 73.2302 75.7813 73.1595C75.6737 73.031 75.6898 72.8398 75.8183 72.7305C76.1894 72.4173 76.575 72.112 76.9653 71.8212C77.1003 71.72 77.2899 71.7489 77.3911 71.8823C77.4923 72.0172 77.4634 72.2068 77.33 72.308C76.9509 72.5924 76.5733 72.8896 76.2119 73.1948C76.1524 73.2446 76.0834 73.2671 76.0143 73.2671ZM106.826 72.3498C106.763 72.3498 106.699 72.3305 106.644 72.2903C106.264 72.0076 105.87 71.7313 105.473 71.4694C105.333 71.3778 105.295 71.1883 105.386 71.0485C105.48 70.9087 105.668 70.8702 105.807 70.9617C106.214 71.2284 106.617 71.5112 107.006 71.802C107.141 71.9016 107.168 72.0927 107.068 72.2277C107.011 72.3064 106.919 72.3498 106.826 72.3498ZM78.3293 71.5385C78.2313 71.5385 78.1333 71.4903 78.0755 71.4019C77.9823 71.2622 78.0208 71.0726 78.1622 70.981C78.567 70.7127 78.9863 70.4541 79.4056 70.2115C79.5502 70.1263 79.7366 70.1762 79.8218 70.3224C79.9053 70.4669 79.8571 70.6533 79.7109 70.7384C79.3012 70.9762 78.8932 71.2284 78.498 71.4903C78.445 71.5224 78.3855 71.5385 78.3293 71.5385ZM104.41 70.7577C104.358 70.7577 104.305 70.7449 104.257 70.7176C103.846 70.4798 103.422 70.2517 102.999 70.038C102.85 69.9625 102.789 69.7793 102.864 69.6299C102.94 69.4805 103.123 69.4195 103.272 69.495C103.706 69.7135 104.14 69.948 104.561 70.1906C104.705 70.2741 104.755 70.4605 104.671 70.6067C104.617 70.7047 104.516 70.7577 104.41 70.7577ZM80.8258 70.0894C80.715 70.0894 80.6073 70.0284 80.5543 69.9223C80.4788 69.7729 80.5382 69.5898 80.6893 69.5143C81.123 69.2958 81.568 69.0869 82.0131 68.8942C82.1673 68.8267 82.3456 68.8974 82.4131 69.0516C82.4805 69.2058 82.4098 69.3841 82.2556 69.4516C81.8219 69.6396 81.3865 69.8436 80.964 70.0573C80.919 70.0782 80.8724 70.0894 80.8258 70.0894ZM101.825 69.458C101.785 69.458 101.744 69.45 101.704 69.4323C101.267 69.2444 100.821 69.066 100.376 68.9038C100.218 68.8459 100.136 68.6725 100.194 68.5134C100.252 68.356 100.425 68.274 100.584 68.3319C101.041 68.4973 101.5 68.6805 101.947 68.8733C102.101 68.9391 102.172 69.1191 102.106 69.2733C102.054 69.389 101.942 69.458 101.825 69.458ZM83.4734 68.9407C83.3497 68.9407 83.2324 68.8636 83.1874 68.7415C83.1296 68.5841 83.2115 68.409 83.3689 68.3511C83.8252 68.1841 84.2927 68.0282 84.757 67.8885C84.9176 67.8403 85.0879 67.9318 85.1361 68.0925C85.1843 68.2532 85.0927 68.4234 84.9321 68.4716C84.4774 68.6082 84.0228 68.7608 83.5778 68.9231C83.5441 68.9343 83.5087 68.9407 83.4734 68.9407ZM99.1032 68.4684C99.0743 68.4684 99.0454 68.4636 99.0165 68.4556C98.5618 68.3206 98.0976 68.1953 97.6365 68.0877C97.4726 68.0491 97.3714 67.8852 97.41 67.7214C97.4485 67.5575 97.6124 67.4563 97.7763 67.4949C98.2486 67.6057 98.7257 67.7326 99.19 67.8724C99.3506 67.9206 99.4422 68.0893 99.394 68.2499C99.3555 68.3833 99.235 68.4684 99.1032 68.4684ZM86.2414 68.107C86.1033 68.107 85.9796 68.0122 85.9458 67.874C85.9073 67.7101 86.0085 67.5463 86.1707 67.5077C86.643 67.3953 87.125 67.2957 87.6037 67.2105C87.7692 67.1816 87.9267 67.2908 87.9556 67.4563C87.9845 67.6218 87.8752 67.7792 87.7098 67.8081C87.2423 67.8901 86.7716 67.9881 86.3121 68.0973C86.288 68.1054 86.2655 68.107 86.2414 68.107ZM96.2902 67.8049C96.2726 67.8049 96.2549 67.8033 96.2372 67.8001C95.7713 67.7182 95.2958 67.6491 94.8235 67.5961C94.6564 67.5768 94.5375 67.4258 94.5568 67.2587C94.5761 67.0916 94.7255 66.9728 94.8941 66.992C95.3777 67.0483 95.8645 67.1173 96.3432 67.2009C96.5087 67.2298 96.6196 67.3872 96.5906 67.5527C96.5633 67.7005 96.4364 67.8049 96.2902 67.8049ZM89.0882 67.6041C88.9355 67.6041 88.8054 67.4901 88.7861 67.3358C88.7669 67.1688 88.8857 67.0177 89.0528 66.9984C89.5348 66.9422 90.0248 66.8989 90.5099 66.8699C90.677 66.8603 90.8216 66.9872 90.8312 67.1559C90.8409 67.323 90.714 67.4675 90.5453 67.4772C90.0714 67.5045 89.5926 67.5463 89.1235 67.6025C89.1107 67.6041 89.0994 67.6041 89.0882 67.6041ZM93.4194 67.474C93.4129 67.474 93.4081 67.474 93.4017 67.474C92.9374 67.4483 92.4651 67.4338 91.9992 67.4338H91.9735C91.8048 67.4338 91.6699 67.2973 91.6699 67.1302C91.6699 66.9631 91.8064 66.8266 91.9735 66.8266H91.9992C92.4763 66.8266 92.9599 66.8394 93.4354 66.8667C93.6025 66.8764 93.731 67.0193 93.7214 67.188C93.7133 67.3503 93.5784 67.474 93.4194 67.474Z" fill="#D9AC80"/>
<path d="M84.7393 114.773C84.7088 114.773 84.6767 114.768 84.6445 114.759C84.4855 114.707 84.3971 114.535 84.4501 114.376L99.0309 69.4998C99.0824 69.3392 99.2543 69.2524 99.4133 69.3054C99.5723 69.3568 99.6607 69.5287 99.6093 69.6878L85.0285 114.564C84.9867 114.691 84.8678 114.773 84.7393 114.773Z" fill="white"/>
<path d="M78.1622 111.422C78.0996 111.422 78.0369 111.403 77.9839 111.364C77.8473 111.266 77.8184 111.075 77.9164 110.94L105.651 72.7659C105.751 72.6293 105.941 72.6004 106.076 72.6984C106.212 72.7964 106.241 72.9876 106.143 73.1225L78.408 111.297C78.3486 111.379 78.257 111.422 78.1622 111.422Z" fill="white"/>
<path d="M72.9442 106.202C72.8494 106.202 72.7579 106.159 72.6984 106.077C72.6004 105.941 72.6294 105.751 72.7659 105.653L110.94 77.918C111.077 77.82 111.266 77.8489 111.364 77.9855C111.462 78.122 111.433 78.3116 111.297 78.4096L73.1226 106.145C73.0679 106.183 73.0053 106.202 72.9442 106.202Z" fill="white"/>
<path d="M69.5914 99.6254C69.4629 99.6254 69.344 99.5434 69.3022 99.4149C69.2508 99.2558 69.3376 99.084 69.4966 99.0325L114.373 84.4517C114.532 84.4003 114.704 84.4871 114.756 84.6477C114.807 84.8068 114.72 84.9787 114.56 85.0301L69.683 99.6109C69.6557 99.6205 69.6235 99.6254 69.5914 99.6254Z" fill="white"/>
<path d="M115.623 92.3349H68.4379C68.2693 92.3349 68.1343 92.1984 68.1343 92.0313C68.1343 91.8642 68.2709 91.7277 68.4379 91.7277H115.623C115.792 91.7277 115.927 91.8642 115.927 92.0313C115.927 92.1984 115.79 92.3349 115.623 92.3349Z" fill="white"/>
<path d="M114.468 99.6254C114.438 99.6254 114.405 99.6205 114.373 99.6109L69.4966 85.0301C69.3376 84.9787 69.2492 84.8068 69.3022 84.6477C69.3552 84.4887 69.5255 84.4003 69.6846 84.4517L114.561 99.0325C114.72 99.0839 114.809 99.2558 114.757 99.4149C114.715 99.5434 114.597 99.6254 114.468 99.6254Z" fill="white"/>
<path d="M111.117 106.202C111.054 106.202 110.993 106.183 110.939 106.145L72.7643 78.4096C72.6278 78.3116 72.5988 78.1204 72.6968 77.9855C72.7948 77.8489 72.986 77.82 73.121 77.918L111.295 105.653C111.432 105.751 111.461 105.942 111.363 106.077C111.303 106.159 111.21 106.202 111.117 106.202Z" fill="white"/>
<path d="M105.897 111.422C105.802 111.422 105.711 111.379 105.651 111.297L77.9164 73.1225C77.8184 72.986 77.8473 72.7964 77.9839 72.6984C78.1189 72.6004 78.31 72.6293 78.408 72.7659L106.143 110.94C106.241 111.077 106.212 111.266 106.076 111.364C106.023 111.403 105.96 111.422 105.897 111.422Z" fill="white"/>
<path d="M99.3201 114.773C99.1916 114.773 99.0727 114.691 99.031 114.563L84.4501 69.6861C84.3987 69.5271 84.4855 69.3552 84.6445 69.3038C84.8036 69.2524 84.9755 69.3392 85.0269 69.4982L99.6077 114.375C99.6591 114.534 99.5723 114.706 99.4117 114.757C99.3828 114.768 99.3523 114.773 99.3201 114.773Z" fill="white"/>
<path d="M92.0298 115.927C91.8611 115.927 91.7261 115.79 91.7261 115.623V68.4379C91.7261 68.2692 91.8627 68.1343 92.0298 68.1343C92.1968 68.1343 92.3334 68.2708 92.3334 68.4379V115.623C92.335 115.792 92.1984 115.927 92.0298 115.927Z" fill="white"/>
<path d="M107.174 107.178C115.557 98.7957 115.557 85.2051 107.174 76.8227C98.7917 68.4403 85.2011 68.4403 76.8186 76.8227C68.4362 85.2051 68.4362 98.7957 76.8186 107.178C85.2011 115.561 98.7917 115.561 107.174 107.178Z" fill="#BA9067"/>
<path d="M105.884 105.888C113.553 98.218 113.553 85.7829 105.884 78.1132C98.2139 70.4434 85.7788 70.4434 78.1091 78.1132C70.4393 85.7829 70.4393 98.218 78.1091 105.888C85.7788 113.557 98.2139 113.557 105.884 105.888Z" fill="#E2B181"/>
<path d="M91.9992 101.547C97.2713 101.547 101.545 97.2729 101.545 92.0008C101.545 86.7287 97.2713 82.4548 91.9992 82.4548C86.7271 82.4548 82.4533 86.7287 82.4533 92.0008C82.4533 97.2729 86.7271 101.547 91.9992 101.547Z" fill="#4F3D2A"/>
<path d="M174.297 50.6826H160.929C158.408 50.6826 156.365 48.6391 156.365 46.1185V38.9518C156.365 36.4311 158.408 34.3876 160.929 34.3876H174.297C176.817 34.3876 178.861 36.4311 178.861 38.9518V46.1185C178.861 48.6391 176.817 50.6826 174.297 50.6826Z" fill="#4F2F2F"/>
<path d="M174.297 150.04H160.929C158.408 150.04 156.365 147.996 156.365 145.476V138.309C156.365 135.788 158.408 133.745 160.929 133.745H174.297C176.817 133.745 178.861 135.788 178.861 138.309V145.476C178.861 147.996 176.817 150.04 174.297 150.04Z" fill="#4F2F2F"/>
</svg>
