<svg width="16" height="22" viewBox="0 0 16 22" fill="none" xmlns="http://www.w3.org/2000/svg">
<path d="M4.40334 0.0229008C4.59521 0.014839 4.78871 0.0212868 4.9838 0.0212868C5.69646 0.0212868 6.40746 0.0212868 7.11851 0.0212868C7.84568 0.0212868 8.57124 0.0212868 9.29841 0.0212868C10.0111 0.0212868 10.7447 -0.0286929 11.4541 0.0245147C12.0668 0.0696605 12.6021 0.438889 13.0165 0.870999C14.3032 2.2157 14.8723 4.23597 15.2367 6.00956C15.5721 7.64609 15.7156 9.32292 15.7156 10.9933C15.7156 12.8975 15.5318 14.8146 15.0819 16.6656C14.7466 18.0425 14.2725 19.4679 13.426 20.6223C13.1423 21.0093 12.8069 21.3736 12.3974 21.6316C11.8669 21.9654 11.3574 21.9621 10.7415 21.9621C9.63059 21.9638 8.51969 21.9638 7.40878 21.9654C6.3801 21.9654 5.31755 22.0444 4.2921 21.9638C3.28599 21.8847 2.54911 21.0609 2.04284 20.2595C0.362766 17.6024 0 14.06 0 10.9933C0 8.57641 0.277312 6.09664 1.07543 3.80387C1.53978 2.46885 2.30728 0.66624 3.75517 0.135777C3.96961 0.0583843 4.18567 0.0309625 4.40334 0.0229008Z" fill="#ED5375"/>
</svg>
