<svg width="342" height="342" viewBox="0 0 342 342" fill="none" xmlns="http://www.w3.org/2000/svg">
<path d="M315.543 186.086C315.543 265.917 250.827 330.628 171 330.628C91.1744 330.628 26.458 265.917 26.458 186.086C26.458 106.255 91.1696 41.5435 171 41.5435C250.831 41.5435 315.543 106.255 315.543 186.086Z" fill="#FFC30C" fill-opacity="0.2"/>
<path d="M171 0C76.5607 0 0 76.5607 0 171C0 265.439 76.5607 342 171 342C265.439 342 342 265.439 342 171C342 76.5607 265.439 0 171 0ZM171 337.197C79.3296 337.197 5.01748 266.079 5.01748 178.352C5.01748 90.6249 79.3296 19.5066 171 19.5066C262.67 19.5066 336.983 90.6249 336.983 178.352C336.983 266.084 262.67 337.197 171 337.197Z" fill="#B32C43"/>
</svg>
