<svg width="31" height="31" viewBox="0 0 31 31" fill="none" xmlns="http://www.w3.org/2000/svg">
<path d="M31 15.4968C31 16.1467 30.9596 16.7918 30.882 17.4272C30.4616 20.837 28.9289 23.9897 26.4601 26.4569C23.5321 29.3848 19.6405 30.9968 15.5 30.9968C13.4467 30.9968 11.4548 30.6007 9.61172 29.844C8.7904 29.5061 7.99818 29.0987 7.24315 28.6217C6.27632 28.0106 5.36931 27.2863 4.53991 26.4585C2.6208 24.5394 1.26595 22.2048 0.561035 19.6583C0.506065 19.4611 0.455935 19.2638 0.409048 19.0634C0.147131 17.9429 0.00808386 16.7853 0 15.6067C0 15.5711 0 15.5339 0 15.4984C0 14.7304 0.0549734 13.9705 0.164914 13.2252C0.643479 9.94801 2.15517 6.92303 4.53991 4.53991C7.46788 1.61193 11.3594 0 15.5 0C17.2995 0 19.052 0.303953 20.6995 0.889225C21.744 1.25947 22.7464 1.74289 23.6906 2.33301C24.6623 2.9393 25.5725 3.66037 26.4068 4.48492C26.4245 4.50271 26.4423 4.52051 26.4601 4.53829C27.0567 5.13488 27.5999 5.77187 28.085 6.44283C29.4285 8.30212 30.3339 10.4233 30.7462 12.6771C30.9143 13.5971 31 14.5396 31 15.4968Z" fill="#DBA63B"/>
</svg>
