<svg width="34" height="52" viewBox="0 0 34 52" fill="none" xmlns="http://www.w3.org/2000/svg">
<path fill-rule="evenodd" clip-rule="evenodd" d="M1.26071 37.4731C3.25582 49.8907 0.373272 51.2202 0.59513 51.664C0.718921 51.9131 9.46623 52.1591 16.794 51.8681C16.7956 51.8681 16.7956 51.8681 16.7956 51.8681C22.6025 51.635 27.5187 51.0675 26.538 49.8907C26.538 49.8907 25.4288 42.5726 24.5429 39.0261C23.6555 35.478 29.8643 24.6134 31.1955 18.1827C31.9575 14.4995 32.6472 12.125 33.0555 10.3534C33.2066 9.69421 33.3192 9.11867 33.3835 8.58814C33.3947 8.49489 33.4028 8.40487 33.4124 8.31484C33.4494 7.8872 33.4526 7.48849 33.4124 7.09461C33.406 7.03995 33.4012 6.9837 33.3899 6.92904C33.1552 5.40979 31.6761 2.84717 28.165 1.29899C27.8017 1.13983 27.4174 0.988704 27.0091 0.85366C25.432 0.327954 23.5172 0 21.2151 0C21.2151 0 10.1286 5.54323 9.24116 0C9.24116 0 2.58864 3.10439 1.2591 3.10439C0.334689 3.10439 -0.26818 13.6973 0.119267 24.3288C0.238235 27.6326 0.453666 30.9411 0.786453 33.9346C0.924712 35.1757 1.08226 36.3622 1.26071 37.4731Z" fill="#D14362"/>
</svg>
