<svg width="30" height="6" viewBox="0 0 30 6" fill="none" xmlns="http://www.w3.org/2000/svg">
<path d="M0 2.44169L1.36033 5.8496C2.5352 5.38125 3.73404 5.00242 4.94408 4.70032C5.31172 4.6092 5.68092 4.52287 6.05176 4.44455C6.50413 4.34864 6.95809 4.26392 7.41046 4.1872C8.11058 4.07051 8.81073 3.97461 9.50766 3.90108C10.8552 3.75722 12.1899 3.68688 13.4927 3.67569C14.1336 3.6693 14.7682 3.6773 15.3916 3.69808C15.5882 3.70447 15.7832 3.71246 15.9782 3.72046C16.0358 3.72365 16.0933 3.72524 16.1509 3.72844C16.2708 3.73323 16.3907 3.73962 16.5105 3.74602C17.5751 3.80516 18.603 3.89468 19.5796 4.00657C19.8833 4.04173 20.1822 4.07851 20.4763 4.11687C21.1189 4.19999 21.7375 4.2927 22.3242 4.3902C22.8884 4.48291 23.4255 4.58043 23.9306 4.67953C24.2583 4.74187 24.5716 4.8074 24.8721 4.86974C27.2938 5.38285 28.7996 5.87198 28.8475 5.88636L30 2.40332C29.9185 2.37615 28.913 2.04686 27.2394 1.63925C26.6224 1.489 25.9159 1.32914 25.1311 1.16929C24.749 1.09097 24.3478 1.01425 23.9306 0.937525C22.8788 0.74571 21.7199 0.563479 20.4763 0.411625C20.3676 0.398837 20.2605 0.386051 20.1502 0.373263C19.9808 0.354081 19.8129 0.334902 19.6451 0.315721C18.8171 0.226207 17.9971 0.155883 17.1835 0.104732C16.9581 0.0903458 16.7343 0.0775401 16.5105 0.0663509C16.3907 0.059957 16.2708 0.0535671 16.1509 0.0503701C15.3117 0.012007 14.4837 -0.00396749 13.6653 0.000827903C13.6046 0.000827903 13.5438 0.000827903 13.4831 0.000827903C12.4824 0.0104187 11.4978 0.0503803 10.5323 0.120713C10.2606 0.141493 9.99041 0.163859 9.72347 0.187836C9.65154 0.19423 9.57959 0.200624 9.50766 0.208616C9.48208 0.211813 9.45815 0.21342 9.43258 0.216617C8.27529 0.331706 7.14831 0.493156 6.05176 0.700956C5.60899 0.785674 5.17101 0.876782 4.73943 0.975887C4.34621 1.0654 3.95621 1.16132 3.57258 1.26362C3.41593 1.30518 3.26089 1.34673 3.10584 1.39148C2.96198 1.43145 2.81973 1.47301 2.67907 1.51457C1.75675 1.7895 0.86317 2.09802 0 2.44169Z" fill="#B32C43"/>
</svg>
