<svg width="330" height="44" viewBox="0 0 330 44" fill="none" xmlns="http://www.w3.org/2000/svg">
<rect width="160" height="44" rx="5" fill="#B32C43"/>
<path d="M69.7694 21.366H70.7634C71.4074 21.366 71.8881 21.212 72.2054 20.904C72.5227 20.596 72.6814 20.1807 72.6814 19.658C72.6814 19.1447 72.5227 18.7433 72.2054 18.454C71.8881 18.1553 71.4214 18.006 70.8054 18.006H69.7694V21.366ZM68.0054 16.564H70.9594C72.0234 16.564 72.8727 16.8533 73.5074 17.432C74.1514 18.0107 74.4734 18.7527 74.4734 19.658C74.4734 20.6193 74.1421 21.3847 73.4794 21.954C72.8261 22.514 72.0001 22.794 71.0014 22.794H69.7694V26H68.0054V16.564ZM78.1787 22.416H80.8387L80.7127 21.996C80.3954 20.988 80.134 20.1433 79.9287 19.462C79.7327 18.7713 79.6114 18.3373 79.5647 18.16L79.5087 17.88C79.4247 18.3467 79.0234 19.7233 78.3047 22.01L78.1787 22.416ZM81.9587 26L81.2867 23.858H77.7167L77.0447 26H75.1967L78.3887 16.564H80.6707L83.8627 26H81.9587ZM92.7223 16.564L89.4743 22.5V26H87.7103V22.556L84.4903 16.564H86.5483L87.1783 17.936C87.5423 18.7293 87.8409 19.3967 88.0743 19.938C88.3076 20.47 88.4476 20.8013 88.4943 20.932L88.5783 21.142C88.6623 20.7967 89.1429 19.728 90.0203 17.936L90.6643 16.564H92.7223Z" fill="white"/>
<rect x="170" width="160" height="44" rx="5" fill="#D9D9D9"/>
<path d="M232.854 16.956V18.678C232.145 18.2673 231.361 18.062 230.502 18.062C229.643 18.062 228.925 18.356 228.346 18.944C227.777 19.5227 227.492 20.302 227.492 21.282C227.492 22.262 227.777 23.0413 228.346 23.62C228.925 24.1987 229.676 24.488 230.6 24.488C231.487 24.488 232.243 24.2547 232.868 23.788V25.552C232.289 25.9253 231.477 26.112 230.432 26.112C229.032 26.112 227.875 25.6733 226.96 24.796C226.055 23.9093 225.602 22.738 225.602 21.282C225.602 19.854 226.05 18.692 226.946 17.796C227.851 16.8907 229.013 16.438 230.432 16.438C231.468 16.438 232.275 16.6107 232.854 16.956ZM236.905 22.416H239.565L239.439 21.996C239.122 20.988 238.861 20.1433 238.655 19.462C238.459 18.7713 238.338 18.3373 238.291 18.16L238.235 17.88C238.151 18.3467 237.75 19.7233 237.031 22.01L236.905 22.416ZM240.685 26L240.013 23.858H236.443L235.771 26H233.923L237.115 16.564H239.397L242.589 26H240.685ZM243.945 26V16.564H245.947L248.215 20.498C248.588 21.142 248.92 21.744 249.209 22.304C249.508 22.8547 249.708 23.2467 249.811 23.48L249.965 23.83C249.89 23.0553 249.853 21.9447 249.853 20.498V16.564H251.631V26H249.615L247.319 22.08C246.955 21.464 246.624 20.876 246.325 20.316C246.036 19.7467 245.835 19.336 245.723 19.084L245.555 18.692C245.658 19.5787 245.709 20.7033 245.709 22.066V26H243.945ZM260.458 16.956V18.678C259.748 18.2673 258.964 18.062 258.106 18.062C257.247 18.062 256.528 18.356 255.95 18.944C255.38 19.5227 255.096 20.302 255.096 21.282C255.096 22.262 255.38 23.0413 255.95 23.62C256.528 24.1987 257.28 24.488 258.204 24.488C259.09 24.488 259.846 24.2547 260.472 23.788V25.552C259.893 25.9253 259.081 26.112 258.036 26.112C256.636 26.112 255.478 25.6733 254.564 24.796C253.658 23.9093 253.206 22.738 253.206 21.282C253.206 19.854 253.654 18.692 254.55 17.796C255.455 16.8907 256.617 16.438 258.036 16.438C259.072 16.438 259.879 16.6107 260.458 16.956ZM263.893 24.558H267.743V26H262.115V16.564H267.687V18.006H263.893V20.568H267.267V21.996H263.893V24.558ZM271.275 24.432H274.957V26H269.511V16.564H271.275V24.432Z" fill="#3E4356"/>
</svg>
