<svg width="17" height="43" viewBox="0 0 17 43" fill="none" xmlns="http://www.w3.org/2000/svg">
<path fill-rule="evenodd" clip-rule="evenodd" d="M0 43C5.81468 42.7666 10.7375 42.1983 9.75553 41.0199C9.75553 41.0199 8.64476 33.692 7.75775 30.1407C6.86913 26.5879 13.0863 15.7087 14.4192 9.26938C15.1823 5.58127 15.8729 3.20355 16.2818 1.42952C16.4009 0.906332 16.4975 0.436262 16.5635 0L7.64666 8.71559C7.64666 8.71559 7.86882 9.38206 8.31313 10.4912C8.75744 11.602 6.09318 17.597 5.42671 20.9277C4.76024 24.2584 5.64886 32.6955 5.42671 37.3592C5.3108 39.761 2.60148 41.6896 0 43Z" fill="#B32C43"/>
</svg>
