<svg width="37" height="37" viewBox="0 0 37 37" fill="none" xmlns="http://www.w3.org/2000/svg">
<path d="M37 18.5008C37 21.8986 36.089 25.1569 34.3835 27.9966C34.1865 28.3249 33.9781 28.6483 33.7614 28.9651C33.1212 29.8925 32.3941 30.7674 31.5799 31.5816C31.2139 31.9476 30.8363 32.2956 30.444 32.6255C29.0406 33.8172 27.4861 34.7807 25.8266 35.4964C23.5417 36.4813 21.0598 37 18.4975 37C17.9772 37 17.4618 36.9787 16.9496 36.936C16.7888 36.9228 16.6279 36.9064 16.4687 36.89C14.627 36.6914 12.8444 36.2203 11.1685 35.4964C9.50894 34.7791 7.95449 33.8172 6.55104 32.6255C6.16038 32.2956 5.78284 31.9476 5.41844 31.5816C3.2944 29.4575 1.74979 26.9083 0.865049 24.1244C0.865049 24.1244 0.865049 24.1244 0.865049 24.1228C0.295465 22.3287 0 20.4361 0 18.4992C0 16.5918 0.287253 14.7271 0.840423 12.9576V12.956C1.72024 10.1409 3.2747 7.56382 5.42008 5.41844C5.78448 5.05403 6.16366 4.70441 6.55269 4.37448C7.95613 3.18278 9.51059 2.21925 11.1701 1.50358C12.846 0.779696 14.627 0.310242 16.4703 0.109985C16.6296 0.0919286 16.7904 0.0771507 16.9513 0.0640191C17.4634 0.0213413 17.9805 0 18.4992 0C21.0615 0 23.545 0.517063 25.8283 1.50358C27.4878 2.21925 29.0422 3.18278 30.4457 4.37448C30.8363 4.70441 31.2155 5.05403 31.5816 5.41844C32.3941 6.2326 33.1229 7.1075 33.763 8.03492C33.9797 8.35172 34.1882 8.67507 34.3851 9.00336C36.089 11.8447 37 15.103 37 18.5008Z" fill="#E6B23E"/>
</svg>
