<svg width="55" height="34" viewBox="0 0 55 34" fill="none" xmlns="http://www.w3.org/2000/svg">
<path fill-rule="evenodd" clip-rule="evenodd" d="M0 30.006V33.9883C0 33.9883 15.7255 33.5344 22.4247 33.0019C23.8296 32.8913 24.8352 32.7758 25.2186 32.6619C27.4302 31.9979 30.3059 32.2193 35.3948 27.5746C40.4822 22.9299 54.6151 9.477 54.6151 9.477C54.7658 8.81943 54.8781 8.24526 54.9423 7.716C54.9535 7.62298 54.9615 7.53317 54.9711 7.44336C55.008 7.01674 55.0112 6.61898 54.9711 6.22604C54.9647 6.17151 54.9599 6.11539 54.9487 6.06086C54.7145 4.54525 53.239 1.98875 49.7362 0.444263C49.3738 0.285484 48.9905 0.134721 48.5831 0C48.4003 0.583792 48.1917 1.15956 47.9544 1.72251C47.5246 2.74414 45.9785 3.64871 45.1381 4.37685C44.0924 5.2798 43.0483 6.18595 42.0074 7.09532C39.6819 9.12897 37.3707 11.1787 35.0901 13.262C33.0965 15.084 31.1126 16.9204 29.2329 18.8626C28.5866 19.5314 26.7646 20.9796 26.7646 22.0414C26.7646 22.0414 24.5594 22.5562 21.7559 23.4175C19.6982 24.0478 17.3213 24.8657 15.2604 25.8023C10.3976 28.0156 0 30.006 0 30.006Z" fill="#B32C43"/>
</svg>
