<svg width="50" height="51" viewBox="0 0 50 51" fill="none" xmlns="http://www.w3.org/2000/svg">
<path d="M25 50.9091C38.8071 50.9091 50 39.5127 50 25.4545C50 11.3964 38.8071 0 25 0C11.1929 0 0 11.3964 0 25.4545C0 39.5127 11.1929 50.9091 25 50.9091Z" fill="#DDDDDD"/>
<path d="M45.0618 40.6244C42.7302 37.4461 39.7027 34.8653 36.2198 33.0871C32.7369 31.309 28.8946 30.3824 24.9984 30.3812C21.1022 30.38 17.2594 31.304 13.7754 33.08C10.2914 34.8559 7.26227 37.4348 4.92871 40.6116C7.2504 43.8046 10.2746 46.3992 13.7588 48.1875C17.243 49.9757 21.0903 50.9078 24.9921 50.9091C28.8939 50.9103 32.7418 49.9807 36.2271 48.1946C39.7124 46.4086 42.7382 43.8159 45.0618 40.6244Z" fill="#FC9B12"/>
<path d="M24.9997 27.0968C30.3444 27.0968 34.6771 22.6852 34.6771 17.2434C34.6771 11.8015 30.3444 7.39002 24.9997 7.39002C19.655 7.39002 15.3223 11.8015 15.3223 17.2434C15.3223 22.6852 19.655 27.0968 24.9997 27.0968Z" fill="#FC9B12"/>
</svg>
